RecursiveMono-TextSemiBoldv0.0.4.ufo
<glyph name="comma" format="1">
  <advance width="600"/>
  <unicode hex="002C"/>
  <outline>
    <contour>
      <point x="206" y="-121" type="curve" smooth="yes"/>
      <point x="225" y="-140"/>
      <point x="255" y="-150"/>
      <point x="294" y="-150" type="curve" smooth="yes"/>
      <point x="316" y="-150" type="line"/>
      <point x="316" y="-72"/>
      <point x="391" y="11"/>
      <point x="391" y="91" type="curve" smooth="yes"/>
      <point x="391" y="99"/>
      <point x="389" y="102"/>
      <point x="384" y="107" type="curve" smooth="yes"/>
      <point x="361" y="130"/>
      <point x="307" y="140"/>
      <point x="265" y="140" type="curve" smooth="yes"/>
      <point x="243" y="140" type="line"/>
      <point x="243" y="60"/>
      <point x="199" y="-27"/>
      <point x="199" y="-105" type="curve" smooth="yes"/>
      <point x="199" y="-113"/>
      <point x="201" y="-116"/>
    </contour>
  </outline>
</glyph>
<glyph name="B" format="1">
  <advance width="600"/>
  <unicode hex="0042"/>
  <outline>
    <contour>
      <point x="30" y="700" type="curve"/>
      <point x="30" y="678" type="line" smooth="yes"/>
      <point x="30" y="636"/>
      <point x="35" y="593"/>
      <point x="51" y="577" type="curve" smooth="yes"/>
      <point x="56" y="572"/>
      <point x="60" y="570"/>
      <point x="67" y="570" type="curve" smooth="yes"/>
      <point x="76" y="570"/>
      <point x="87" y="572"/>
      <point x="114" y="578" type="curve" smooth="yes"/>
      <point x="157" y="587"/>
      <point x="211" y="590"/>
      <point x="318" y="590" type="curve" smooth="yes"/>
      <point x="387" y="590"/>
      <point x="426" y="583"/>
      <point x="472" y="553" type="curve"/>
      <point x="496" y="577"/>
      <point x="495" y="633"/>
      <point x="475" y="653" type="curve" smooth="yes"/>
      <point x="424" y="705"/>
      <point x="380" y="720"/>
      <point x="300" y="720" type="curve" smooth="yes"/>
      <point x="203" y="720"/>
      <point x="121" y="714"/>
    </contour>
    <contour>
      <point x="218" y="25" type="line"/>
      <point x="218" y="228"/>
      <point x="218" y="423"/>
      <point x="218" y="625" type="curve" smooth="yes"/>
      <point x="218" y="633"/>
      <point x="216" y="636"/>
      <point x="211" y="641" type="curve" smooth="yes"/>
      <point x="198" y="654"/>
      <point x="144" y="666"/>
      <point x="102" y="666" type="curve" smooth="yes"/>
      <point x="80" y="666" type="line"/>
      <point x="80" y="513"/>
      <point x="80" y="384"/>
      <point x="80" y="231" type="curve" smooth="yes"/>
      <point x="80" y="177"/>
      <point x="80" y="128"/>
      <point x="80" y="74" type="curve" smooth="yes"/>
      <point x="80" y="46"/>
      <point x="146" y="25"/>
      <point x="196" y="25" type="curve" smooth="yes"/>
    </contour>
    <contour>
      <point x="537" y="481" type="curve" smooth="yes"/>
      <point x="537" y="522" type="line" smooth="yes"/>
      <point x="537" y="568"/>
      <point x="521" y="609"/>
      <point x="475" y="653" type="curve" smooth="yes"/>
      <point x="435" y="691"/>
      <point x="379" y="693"/>
      <point x="340" y="660" type="curve"/>
      <point x="389" y="621"/>
      <point x="407" y="582"/>
      <point x="407" y="508" type="curve" smooth="yes"/>
      <point x="407" y="475" type="line" smooth="yes"/>
      <point x="407" y="406"/>
      <point x="344" y="377"/>
      <point x="253" y="377" type="curve" smooth="yes"/>
      <point x="216" y="377"/>
      <point x="205" y="381"/>
      <point x="182" y="394" type="curve"/>
      <point x="172" y="384"/>
      <point x="167" y="368"/>
      <point x="167" y="353" type="curve" smooth="yes"/>
      <point x="167" y="314"/>
      <point x="207" y="275"/>
      <point x="255" y="275" type="curve" smooth="yes"/>
      <point x="408" y="275"/>
      <point x="537" y="349"/>
    </contour>
    <contour>
      <point x="521" y="181" type="curve" smooth="yes"/>
      <point x="521" y="206" type="line" smooth="yes"/>
      <point x="521" y="252"/>
      <point x="504" y="291"/>
      <point x="457" y="329" type="curve" smooth="yes"/>
      <point x="422" y="360"/>
      <point x="380" y="352"/>
      <point x="348" y="333" type="curve"/>
      <point x="385" y="299"/>
      <point x="391" y="269"/>
      <point x="391" y="224" type="curve" smooth="yes"/>
      <point x="391" y="191" type="line" smooth="yes"/>
      <point x="391" y="141"/>
      <point x="333" y="116"/>
      <point x="254" y="116" type="curve" smooth="yes"/>
      <point x="182" y="116"/>
      <point x="144" y="122"/>
      <point x="97" y="137" type="curve"/>
      <point x="83" y="121"/>
      <point x="80" y="95"/>
      <point x="80" y="74" type="curve" smooth="yes"/>
      <point x="80" y="32"/>
      <point x="168" y="-10"/>
      <point x="258" y="-10" type="curve" smooth="yes"/>
      <point x="393" y="-10"/>
      <point x="521" y="61"/>
    </contour>
  </outline>
</glyph>
<glyph name="C" format="1">
  <advance width="600"/>
  <unicode hex="0043"/>
  <outline>
    <contour>
      <point x="525" y="404" type="line"/>
      <point x="525" y="568" type="line" smooth="yes"/>
      <point x="525" y="603"/>
      <point x="513" y="634"/>
      <point x="479" y="669" type="curve" smooth="yes"/>
      <point x="442" y="706"/>
      <point x="403" y="705"/>
      <point x="378" y="676" type="curve"/>
      <point x="386" y="663"/>
      <point x="395" y="625"/>
      <point x="395" y="598" type="curve" smooth="yes"/>
      <point x="395" y="452" type="line" smooth="yes"/>
      <point x="395" y="446"/>
      <point x="396" y="443"/>
      <point x="402" y="436" type="curve" smooth="yes"/>
      <point x="424" y="415"/>
      <point x="459" y="404"/>
      <point x="503" y="404" type="curve" smooth="yes"/>
    </contour>
    <contour>
      <point x="380" y="720" type="curve" smooth="yes"/>
      <point x="206" y="720"/>
      <point x="71" y="493"/>
      <point x="71" y="255" type="curve" smooth="yes"/>
      <point x="71" y="243" type="line" smooth="yes"/>
      <point x="71" y="184"/>
      <point x="133" y="127"/>
      <point x="215" y="124" type="curve"/>
      <point x="206" y="151"/>
      <point x="198" y="194"/>
      <point x="198" y="236" type="curve"/>
      <point x="198" y="246" type="line"/>
      <point x="198" y="423"/>
      <point x="293" y="591"/>
      <point x="382" y="591" type="curve" smooth="yes"/>
      <point x="404" y="591"/>
      <point x="427" y="587"/>
      <point x="454" y="572" type="curve"/>
      <point x="499" y="593"/>
      <point x="509" y="639"/>
      <point x="479" y="669" type="curve"/>
      <point x="450" y="697"/>
      <point x="419" y="720"/>
    </contour>
    <contour>
      <point x="328" y="-20" type="curve" smooth="yes"/>
      <point x="450" y="-20"/>
      <point x="550" y="32"/>
      <point x="550" y="85" type="curve" smooth="yes"/>
      <point x="550" y="130"/>
      <point x="550" y="171"/>
      <point x="550" y="193" type="curve"/>
      <point x="528" y="193" type="line"/>
      <point x="479" y="133"/>
      <point x="416" y="110"/>
      <point x="328" y="110" type="curve" smooth="yes"/>
      <point x="223" y="110"/>
      <point x="184" y="157"/>
      <point x="184" y="295" type="curve"/>
      <point x="116" y="296"/>
      <point x="71" y="283"/>
      <point x="71" y="253" type="curve" smooth="yes"/>
      <point x="71" y="243" type="line" smooth="yes"/>
      <point x="71" y="97"/>
      <point x="158" y="-20"/>
    </contour>
  </outline>
</glyph>
<glyph name="D" format="1">
  <advance width="600"/>
  <unicode hex="0044"/>
  <outline>
    <contour>
      <point x="30" y="700" type="curve"/>
      <point x="30" y="678" type="line" smooth="yes"/>
      <point x="30" y="636"/>
      <point x="35" y="593"/>
      <point x="51" y="577" type="curve" smooth="yes"/>
      <point x="56" y="572"/>
      <point x="60" y="570"/>
      <point x="67" y="570" type="curve" smooth="yes"/>
      <point x="76" y="570"/>
      <point x="87" y="572"/>
      <point x="114" y="578" type="curve" smooth="yes"/>
      <point x="153" y="586"/>
      <point x="202" y="590"/>
      <point x="298" y="590" type="curve" smooth="yes"/>
      <point x="368" y="590"/>
      <point x="407" y="581"/>
      <point x="455" y="549" type="curve"/>
      <point x="478" y="571"/>
      <point x="478" y="631"/>
      <point x="457" y="651" type="curve" smooth="yes"/>
      <point x="405" y="704"/>
      <point x="361" y="720"/>
      <point x="280" y="720" type="curve" smooth="yes"/>
      <point x="190" y="720"/>
      <point x="114" y="713"/>
    </contour>
    <contour>
      <point x="218" y="34" type="curve"/>
      <point x="218" y="231"/>
      <point x="218" y="429"/>
      <point x="218" y="625" type="curve" smooth="yes"/>
      <point x="218" y="633"/>
      <point x="216" y="636"/>
      <point x="211" y="641" type="curve" smooth="yes"/>
      <point x="198" y="654"/>
      <point x="144" y="666"/>
      <point x="102" y="666" type="curve" smooth="yes"/>
      <point x="80" y="666" type="line"/>
      <point x="80" y="513"/>
      <point x="80" y="382"/>
      <point x="80" y="229" type="curve" smooth="yes"/>
      <point x="80" y="181"/>
      <point x="80" y="132"/>
      <point x="80" y="84" type="curve" smooth="yes"/>
      <point x="80" y="54"/>
      <point x="146" y="34"/>
    </contour>
    <contour>
      <point x="537" y="313" type="curve" smooth="yes"/>
      <point x="537" y="418" type="line" smooth="yes"/>
      <point x="537" y="500"/>
      <point x="530" y="578"/>
      <point x="457" y="651" type="curve" smooth="yes"/>
      <point x="418" y="690"/>
      <point x="361" y="693"/>
      <point x="321" y="658" type="curve"/>
      <point x="396" y="599"/>
      <point x="407" y="528"/>
      <point x="407" y="404" type="curve" smooth="yes"/>
      <point x="407" y="307" type="line" smooth="yes"/>
      <point x="407" y="189"/>
      <point x="343" y="124"/>
      <point x="242" y="124" type="curve" smooth="yes"/>
      <point x="176" y="124"/>
      <point x="152" y="129"/>
      <point x="94" y="152" type="curve"/>
      <point x="84" y="138"/>
      <point x="80" y="110"/>
      <point x="80" y="84" type="curve" smooth="yes"/>
      <point x="80" y="44"/>
      <point x="168" y="-10"/>
      <point x="247" y="-10" type="curve" smooth="yes"/>
      <point x="412" y="-10"/>
      <point x="537" y="103"/>
    </contour>
  </outline>
</glyph>
<glyph name="E" format="1">
  <advance width="600"/>
  <unicode hex="0045"/>
  <outline>
    <contour>
      <point x="30" y="700" type="curve"/>
      <point x="30" y="678" type="line" smooth="yes"/>
      <point x="30" y="636"/>
      <point x="35" y="593"/>
      <point x="51" y="577" type="curve" smooth="yes"/>
      <point x="56" y="572"/>
      <point x="59" y="570"/>
      <point x="67" y="570" type="curve"/>
      <point x="119" y="570"/>
      <point x="180" y="570"/>
      <point x="233" y="570" type="curve" smooth="yes"/>
      <point x="315" y="570"/>
      <point x="464" y="570"/>
      <point x="546" y="570" type="curve"/>
      <point x="546" y="592" type="line" smooth="yes"/>
      <point x="546" y="615"/>
      <point x="526" y="664"/>
      <point x="497" y="693" type="curve" smooth="yes"/>
      <point x="492" y="698"/>
      <point x="489" y="700"/>
      <point x="481" y="700" type="curve" smooth="yes"/>
      <point x="351" y="700"/>
      <point x="160" y="700"/>
    </contour>
    <contour>
      <point x="218" y="71" type="line"/>
      <point x="218" y="281"/>
      <point x="218" y="414"/>
      <point x="218" y="623" type="curve" smooth="yes"/>
      <point x="218" y="631"/>
      <point x="216" y="634"/>
      <point x="211" y="639" type="curve" smooth="yes"/>
      <point x="198" y="652"/>
      <point x="144" y="664"/>
      <point x="102" y="664" type="curve" smooth="yes"/>
      <point x="80" y="664" type="line"/>
      <point x="80" y="559"/>
      <point x="80" y="454"/>
      <point x="80" y="349" type="curve" smooth="yes"/>
      <point x="80" y="248"/>
      <point x="80" y="221"/>
      <point x="80" y="120" type="curve" smooth="yes"/>
      <point x="80" y="113"/>
      <point x="82" y="109"/>
      <point x="87" y="104" type="curve" smooth="yes"/>
      <point x="110" y="82"/>
      <point x="154" y="71"/>
      <point x="196" y="71" type="curve" smooth="yes"/>
    </contour>
    <contour>
      <point x="140" y="390" type="curve"/>
      <point x="140" y="368" type="line" smooth="yes"/>
      <point x="140" y="326"/>
      <point x="150" y="306"/>
      <point x="173" y="283" type="curve" smooth="yes"/>
      <point x="178" y="278"/>
      <point x="181" y="276"/>
      <point x="189" y="276" type="curve"/>
      <point x="236" y="276"/>
      <point x="202" y="276"/>
      <point x="249" y="276" type="curve" smooth="yes"/>
      <point x="325" y="276"/>
      <point x="414" y="276"/>
      <point x="490" y="276" type="curve"/>
      <point x="490" y="298" type="line" smooth="yes"/>
      <point x="490" y="321"/>
      <point x="478" y="354"/>
      <point x="449" y="383" type="curve" smooth="yes"/>
      <point x="444" y="388"/>
      <point x="441" y="390"/>
      <point x="433" y="390" type="curve" smooth="yes"/>
      <point x="315" y="390"/>
      <point x="258" y="390"/>
    </contour>
    <contour>
      <point x="80" y="130" type="curve"/>
      <point x="80" y="108" type="line" smooth="yes"/>
      <point x="80" y="66"/>
      <point x="90" y="30"/>
      <point x="113" y="7" type="curve" smooth="yes"/>
      <point x="118" y="2"/>
      <point x="121" y="0"/>
      <point x="129" y="0" type="curve"/>
      <point x="177" y="0"/>
      <point x="144" y="0"/>
      <point x="193" y="0" type="curve" smooth="yes"/>
      <point x="274" y="0"/>
      <point x="465" y="0"/>
      <point x="546" y="0" type="curve"/>
      <point x="546" y="22" type="line" smooth="yes"/>
      <point x="546" y="45"/>
      <point x="526" y="94"/>
      <point x="497" y="123" type="curve" smooth="yes"/>
      <point x="492" y="128"/>
      <point x="489" y="130"/>
      <point x="481" y="130" type="curve" smooth="yes"/>
      <point x="358" y="130"/>
      <point x="204" y="130"/>
    </contour>
  </outline>
</glyph>
<glyph name="G" format="1">
  <advance width="600"/>
  <unicode hex="0047"/>
  <outline>
    <contour>
      <point x="525" y="455" type="line"/>
      <point x="525" y="568" type="line" smooth="yes"/>
      <point x="525" y="603"/>
      <point x="513" y="634"/>
      <point x="479" y="669" type="curve" smooth="yes"/>
      <point x="442" y="706"/>
      <point x="403" y="705"/>
      <point x="378" y="676" type="curve"/>
      <point x="386" y="663"/>
      <point x="395" y="625"/>
      <point x="395" y="598" type="curve" smooth="yes"/>
      <point x="395" y="504" type="line" smooth="yes"/>
      <point x="395" y="497"/>
      <point x="396" y="494"/>
      <point x="402" y="488" type="curve" smooth="yes"/>
      <point x="424" y="466"/>
      <point x="459" y="455"/>
      <point x="503" y="455" type="curve" smooth="yes"/>
    </contour>
    <contour>
      <point x="377" y="720" type="curve" smooth="yes"/>
      <point x="205" y="720"/>
      <point x="71" y="591"/>
      <point x="71" y="339" type="curve" smooth="yes"/>
      <point x="71" y="243" type="line" smooth="yes"/>
      <point x="71" y="184"/>
      <point x="133" y="127"/>
      <point x="215" y="124" type="curve"/>
      <point x="206" y="151"/>
      <point x="198" y="194"/>
      <point x="198" y="236" type="curve" smooth="yes"/>
      <point x="198" y="333" type="line" smooth="yes"/>
      <point x="198" y="519"/>
      <point x="292" y="599"/>
      <point x="379" y="599" type="curve" smooth="yes"/>
      <point x="404" y="599"/>
      <point x="427" y="595"/>
      <point x="454" y="580" type="curve"/>
      <point x="499" y="601"/>
      <point x="509" y="639"/>
      <point x="479" y="669" type="curve"/>
      <point x="450" y="697"/>
      <point x="419" y="720"/>
    </contour>
    <contour>
      <point x="328" y="-20" type="curve" smooth="yes"/>
      <point x="440" y="-20"/>
      <point x="533" y="46"/>
      <point x="533" y="127" type="curve" smooth="yes"/>
      <point x="533" y="178"/>
      <point x="516" y="230"/>
      <point x="495" y="250" type="curve" smooth="yes"/>
      <point x="486" y="259"/>
      <point x="468" y="267"/>
      <point x="453" y="267" type="curve"/>
      <point x="457" y="253"/>
      <point x="459" y="241"/>
      <point x="459" y="222" type="curve" smooth="yes"/>
      <point x="459" y="139"/>
      <point x="404" y="110"/>
      <point x="328" y="110" type="curve" smooth="yes"/>
      <point x="223" y="110"/>
      <point x="184" y="157"/>
      <point x="184" y="298" type="curve"/>
      <point x="117" y="299"/>
      <point x="71" y="347"/>
      <point x="71" y="317" type="curve" smooth="yes"/>
      <point x="71" y="243" type="line" smooth="yes"/>
      <point x="71" y="97"/>
      <point x="158" y="-20"/>
    </contour>
    <contour>
      <point x="318" y="344" type="curve"/>
      <point x="318" y="322" type="line" smooth="yes"/>
      <point x="318" y="280"/>
      <point x="328" y="260"/>
      <point x="351" y="237" type="curve" smooth="yes"/>
      <point x="356" y="232"/>
      <point x="359" y="230"/>
      <point x="367" y="230" type="curve"/>
      <point x="414" y="230"/>
      <point x="370" y="230"/>
      <point x="417" y="230" type="curve" smooth="yes"/>
      <point x="469" y="230"/>
      <point x="526" y="230"/>
      <point x="578" y="230" type="curve"/>
      <point x="578" y="252" type="line" smooth="yes"/>
      <point x="578" y="275"/>
      <point x="566" y="308"/>
      <point x="537" y="337" type="curve" smooth="yes"/>
      <point x="532" y="342"/>
      <point x="529" y="344"/>
      <point x="521" y="344" type="curve" smooth="yes"/>
      <point x="436" y="344"/>
      <point x="404" y="344"/>
    </contour>
  </outline>
</glyph>
<glyph name="H" format="1">
  <advance width="600"/>
  <unicode hex="0048"/>
  <outline>
    <contour>
      <point x="218" y="-10" type="line"/>
      <point x="218" y="202"/>
      <point x="218" y="457"/>
      <point x="218" y="669" type="curve" smooth="yes"/>
      <point x="218" y="677"/>
      <point x="216" y="680"/>
      <point x="211" y="685" type="curve" smooth="yes"/>
      <point x="198" y="698"/>
      <point x="144" y="710"/>
      <point x="102" y="710" type="curve" smooth="yes"/>
      <point x="80" y="710" type="line"/>
      <point x="80" y="604"/>
      <point x="80" y="455"/>
      <point x="80" y="349" type="curve" smooth="yes"/>
      <point x="80" y="246"/>
      <point x="80" y="141"/>
      <point x="80" y="39" type="curve" smooth="yes"/>
      <point x="80" y="31"/>
      <point x="82" y="28"/>
      <point x="87" y="23" type="curve" smooth="yes"/>
      <point x="110" y="0"/>
      <point x="154" y="-10"/>
      <point x="196" y="-10" type="curve" smooth="yes"/>
    </contour>
    <contour>
      <point x="528" y="-10" type="line"/>
      <point x="528" y="202"/>
      <point x="528" y="457"/>
      <point x="528" y="669" type="curve" smooth="yes"/>
      <point x="528" y="677"/>
      <point x="526" y="680"/>
      <point x="521" y="685" type="curve" smooth="yes"/>
      <point x="508" y="698"/>
      <point x="454" y="710"/>
      <point x="412" y="710" type="curve" smooth="yes"/>
      <point x="390" y="710" type="line"/>
      <point x="390" y="604"/>
      <point x="390" y="455"/>
      <point x="390" y="349" type="curve" smooth="yes"/>
      <point x="390" y="246"/>
      <point x="390" y="141"/>
      <point x="390" y="39" type="curve" smooth="yes"/>
      <point x="390" y="31"/>
      <point x="392" y="28"/>
      <point x="397" y="23" type="curve" smooth="yes"/>
      <point x="420" y="0"/>
      <point x="464" y="-10"/>
      <point x="506" y="-10" type="curve" smooth="yes"/>
    </contour>
    <contour>
      <point x="30" y="380" type="curve"/>
      <point x="30" y="358" type="line" smooth="yes"/>
      <point x="30" y="316"/>
      <point x="40" y="280"/>
      <point x="63" y="257" type="curve" smooth="yes"/>
      <point x="68" y="252"/>
      <point x="71" y="250"/>
      <point x="79" y="250" type="curve"/>
      <point x="131" y="250"/>
      <point x="180" y="250"/>
      <point x="233" y="250" type="curve"/>
      <point x="311" y="250"/>
      <point x="418" y="250"/>
      <point x="496" y="250" type="curve"/>
      <point x="496" y="272" type="line" smooth="yes"/>
      <point x="496" y="295"/>
      <point x="476" y="344"/>
      <point x="447" y="373" type="curve" smooth="yes"/>
      <point x="442" y="378"/>
      <point x="439" y="380"/>
      <point x="431" y="380" type="curve" smooth="yes"/>
      <point x="305" y="380"/>
      <point x="156" y="380"/>
    </contour>
  </outline>
</glyph>
<glyph name="I" format="1">
  <advance width="600"/>
  <unicode hex="0049"/>
  <outline>
    <contour>
      <point x="54" y="700" type="curve"/>
      <point x="54" y="678" type="line" smooth="yes"/>
      <point x="54" y="636"/>
      <point x="64" y="600"/>
      <point x="87" y="577" type="curve" smooth="yes"/>
      <point x="92" y="572"/>
      <point x="95" y="570"/>
      <point x="103" y="570" type="curve"/>
      <point x="154" y="570"/>
      <point x="182" y="570"/>
      <point x="233" y="570" type="curve"/>
      <point x="315" y="570"/>
      <point x="464" y="570"/>
      <point x="546" y="570" type="curve"/>
      <point x="546" y="592" type="line" smooth="yes"/>
      <point x="546" y="615"/>
      <point x="526" y="664"/>
      <point x="497" y="693" type="curve" smooth="yes"/>
      <point x="492" y="698"/>
      <point x="489" y="700"/>
      <point x="481" y="700" type="curve" smooth="yes"/>
      <point x="353" y="700"/>
      <point x="183" y="700"/>
    </contour>
    <contour>
      <point x="365" y="36" type="line"/>
      <point x="365" y="245"/>
      <point x="365" y="414"/>
      <point x="365" y="623" type="curve" smooth="yes"/>
      <point x="365" y="631"/>
      <point x="363" y="634"/>
      <point x="358" y="639" type="curve" smooth="yes"/>
      <point x="345" y="652"/>
      <point x="291" y="664"/>
      <point x="249" y="664" type="curve" smooth="yes"/>
      <point x="227" y="664" type="line"/>
      <point x="227" y="559"/>
      <point x="227" y="454"/>
      <point x="227" y="349" type="curve" smooth="yes"/>
      <point x="227" y="248"/>
      <point x="227" y="185"/>
      <point x="227" y="85" type="curve" smooth="yes"/>
      <point x="227" y="77"/>
      <point x="229" y="74"/>
      <point x="234" y="69" type="curve" smooth="yes"/>
      <point x="257" y="46"/>
      <point x="301" y="36"/>
      <point x="343" y="36" type="curve" smooth="yes"/>
    </contour>
    <contour>
      <point x="54" y="130" type="curve"/>
      <point x="54" y="108" type="line" smooth="yes"/>
      <point x="54" y="66"/>
      <point x="64" y="30"/>
      <point x="87" y="7" type="curve" smooth="yes"/>
      <point x="92" y="2"/>
      <point x="95" y="0"/>
      <point x="103" y="0" type="curve"/>
      <point x="154" y="0"/>
      <point x="182" y="0"/>
      <point x="233" y="0" type="curve"/>
      <point x="315" y="0"/>
      <point x="464" y="0"/>
      <point x="546" y="0" type="curve"/>
      <point x="546" y="22" type="line" smooth="yes"/>
      <point x="546" y="45"/>
      <point x="526" y="94"/>
      <point x="497" y="123" type="curve" smooth="yes"/>
      <point x="492" y="128"/>
      <point x="489" y="130"/>
      <point x="481" y="130" type="curve" smooth="yes"/>
      <point x="353" y="130"/>
      <point x="183" y="130"/>
    </contour>
  </outline>
</glyph>
<glyph name="L" format="1">
  <advance width="600"/>
  <unicode hex="004C"/>
  <outline>
    <contour>
      <point x="210" y="71" type="line"/>
      <point x="210" y="282"/>
      <point x="210" y="458"/>
      <point x="210" y="669" type="curve" smooth="yes"/>
      <point x="210" y="677"/>
      <point x="208" y="680"/>
      <point x="203" y="685" type="curve" smooth="yes"/>
      <point x="190" y="698"/>
      <point x="136" y="710"/>
      <point x="94" y="710" type="curve" smooth="yes"/>
      <point x="72" y="710" type="line"/>
      <point x="72" y="604"/>
      <point x="72" y="455"/>
      <point x="72" y="349" type="curve" smooth="yes"/>
      <point x="72" y="248"/>
      <point x="72" y="221"/>
      <point x="72" y="120" type="curve" smooth="yes"/>
      <point x="72" y="113"/>
      <point x="74" y="109"/>
      <point x="79" y="104" type="curve" smooth="yes"/>
      <point x="102" y="82"/>
      <point x="146" y="71"/>
      <point x="188" y="71" type="curve" smooth="yes"/>
    </contour>
    <contour>
      <point x="72" y="130" type="curve"/>
      <point x="72" y="108" type="line" smooth="yes"/>
      <point x="72" y="66"/>
      <point x="82" y="30"/>
      <point x="105" y="7" type="curve" smooth="yes"/>
      <point x="110" y="2"/>
      <point x="113" y="0"/>
      <point x="121" y="0" type="curve"/>
      <point x="169" y="0"/>
      <point x="136" y="0"/>
      <point x="185" y="0" type="curve" smooth="yes"/>
      <point x="270" y="0"/>
      <point x="477" y="0"/>
      <point x="562" y="0" type="curve"/>
      <point x="562" y="22" type="line" smooth="yes"/>
      <point x="562" y="45"/>
      <point x="542" y="94"/>
      <point x="513" y="123" type="curve" smooth="yes"/>
      <point x="508" y="128"/>
      <point x="505" y="130"/>
      <point x="497" y="130" type="curve" smooth="yes"/>
      <point x="367" y="130"/>
      <point x="203" y="130"/>
    </contour>
  </outline>
</glyph>
<glyph name="P" format="1">
  <advance width="600"/>
  <unicode hex="0050"/>
  <outline>
    <contour>
      <point x="30" y="700" type="curve"/>
      <point x="30" y="678" type="line" smooth="yes"/>
      <point x="30" y="636"/>
      <point x="35" y="593"/>
      <point x="51" y="577" type="curve" smooth="yes"/>
      <point x="56" y="572"/>
      <point x="60" y="570"/>
      <point x="67" y="570" type="curve" smooth="yes"/>
      <point x="76" y="570"/>
      <point x="87" y="572"/>
      <point x="114" y="578" type="curve" smooth="yes"/>
      <point x="157" y="587"/>
      <point x="211" y="590"/>
      <point x="318" y="590" type="curve" smooth="yes"/>
      <point x="387" y="590"/>
      <point x="426" y="581"/>
      <point x="472" y="551" type="curve"/>
      <point x="496" y="575"/>
      <point x="495" y="631"/>
      <point x="475" y="651" type="curve" smooth="yes"/>
      <point x="423" y="703"/>
      <point x="380" y="720"/>
      <point x="300" y="720" type="curve" smooth="yes"/>
      <point x="203" y="720"/>
      <point x="121" y="714"/>
    </contour>
    <contour>
      <point x="218" y="-10" type="line"/>
      <point x="218" y="202"/>
      <point x="218" y="413"/>
      <point x="218" y="625" type="curve" smooth="yes"/>
      <point x="218" y="633"/>
      <point x="216" y="636"/>
      <point x="211" y="641" type="curve" smooth="yes"/>
      <point x="198" y="654"/>
      <point x="144" y="666"/>
      <point x="102" y="666" type="curve" smooth="yes"/>
      <point x="80" y="666" type="line"/>
      <point x="80" y="513"/>
      <point x="80" y="382"/>
      <point x="80" y="229" type="curve" smooth="yes"/>
      <point x="80" y="166"/>
      <point x="80" y="101"/>
      <point x="80" y="39" type="curve" smooth="yes"/>
      <point x="80" y="31"/>
      <point x="82" y="28"/>
      <point x="87" y="23" type="curve" smooth="yes"/>
      <point x="110" y="0"/>
      <point x="154" y="-10"/>
      <point x="196" y="-10" type="curve" smooth="yes"/>
    </contour>
    <contour>
      <point x="537" y="466" type="curve" smooth="yes"/>
      <point x="537" y="520" type="line" smooth="yes"/>
      <point x="537" y="566"/>
      <point x="521" y="607"/>
      <point x="475" y="651" type="curve" smooth="yes"/>
      <point x="435" y="689"/>
      <point x="379" y="691"/>
      <point x="340" y="658" type="curve"/>
      <point x="389" y="619"/>
      <point x="407" y="580"/>
      <point x="407" y="506" type="curve" smooth="yes"/>
      <point x="407" y="460" type="line" smooth="yes"/>
      <point x="407" y="349"/>
      <point x="350" y="287"/>
      <point x="269" y="287" type="curve" smooth="yes"/>
      <point x="239" y="287"/>
      <point x="226" y="289"/>
      <point x="201" y="295" type="curve"/>
      <point x="196" y="287"/>
      <point x="191" y="274"/>
      <point x="191" y="261" type="curve" smooth="yes"/>
      <point x="191" y="216"/>
      <point x="245" y="153"/>
      <point x="299" y="153" type="curve" smooth="yes"/>
      <point x="425" y="153"/>
      <point x="537" y="262"/>
    </contour>
  </outline>
</glyph>
<glyph name="R" format="1">
  <advance width="600"/>
  <unicode hex="0052"/>
  <outline>
    <contour>
      <point x="30" y="700" type="curve"/>
      <point x="30" y="678" type="line" smooth="yes"/>
      <point x="30" y="636"/>
      <point x="35" y="593"/>
      <point x="51" y="577" type="curve" smooth="yes"/>
      <point x="56" y="572"/>
      <point x="60" y="570"/>
      <point x="67" y="570" type="curve" smooth="yes"/>
      <point x="76" y="570"/>
      <point x="87" y="572"/>
      <point x="114" y="578" type="curve" smooth="yes"/>
      <point x="157" y="587"/>
      <point x="211" y="590"/>
      <point x="318" y="590" type="curve" smooth="yes"/>
      <point x="387" y="590"/>
      <point x="426" y="581"/>
      <point x="472" y="551" type="curve"/>
      <point x="496" y="575"/>
      <point x="495" y="631"/>
      <point x="475" y="651" type="curve" smooth="yes"/>
      <point x="423" y="703"/>
      <point x="380" y="720"/>
      <point x="300" y="720" type="curve" smooth="yes"/>
      <point x="203" y="720"/>
      <point x="121" y="714"/>
    </contour>
    <contour>
      <point x="218" y="-10" type="line"/>
      <point x="218" y="202"/>
      <point x="218" y="413"/>
      <point x="218" y="625" type="curve" smooth="yes"/>
      <point x="218" y="633"/>
      <point x="216" y="636"/>
      <point x="211" y="641" type="curve" smooth="yes"/>
      <point x="198" y="654"/>
      <point x="144" y="666"/>
      <point x="102" y="666" type="curve" smooth="yes"/>
      <point x="80" y="666" type="line"/>
      <point x="80" y="513"/>
      <point x="80" y="382"/>
      <point x="80" y="229" type="curve" smooth="yes"/>
      <point x="80" y="166"/>
      <point x="80" y="101"/>
      <point x="80" y="39" type="curve" smooth="yes"/>
      <point x="80" y="31"/>
      <point x="82" y="28"/>
      <point x="87" y="23" type="curve" smooth="yes"/>
      <point x="110" y="0"/>
      <point x="154" y="-10"/>
      <point x="196" y="-10" type="curve" smooth="yes"/>
    </contour>
    <contour>
      <point x="537" y="479" type="curve" smooth="yes"/>
      <point x="537" y="520" type="line" smooth="yes"/>
      <point x="537" y="566"/>
      <point x="521" y="607"/>
      <point x="475" y="651" type="curve" smooth="yes"/>
      <point x="435" y="689"/>
      <point x="379" y="691"/>
      <point x="340" y="658" type="curve"/>
      <point x="389" y="619"/>
      <point x="407" y="580"/>
      <point x="407" y="506" type="curve" smooth="yes"/>
      <point x="407" y="473" type="line" smooth="yes"/>
      <point x="407" y="355"/>
      <point x="341" y="290"/>
      <point x="245" y="290" type="curve" smooth="yes"/>
      <point x="212" y="290"/>
      <point x="203" y="293"/>
      <point x="182" y="304" type="curve"/>
      <point x="172" y="294"/>
      <point x="167" y="279"/>
      <point x="167" y="264" type="curve" smooth="yes"/>
      <point x="167" y="222"/>
      <point x="207" y="180"/>
      <point x="255" y="180" type="curve" smooth="yes"/>
      <point x="408" y="180"/>
      <point x="537" y="296"/>
    </contour>
    <contour>
      <point x="374" y="301" type="line"/>
      <point x="294" y="258"/>
      <point x="264" y="227"/>
      <point x="279" y="203" type="curve" smooth="yes"/>
      <point x="370" y="70" type="line" smooth="yes"/>
      <point x="413" y="6"/>
      <point x="451" y="-20"/>
      <point x="504" y="-20" type="curve" smooth="yes"/>
      <point x="546" y="-20"/>
      <point x="566" y="-3"/>
      <point x="566" y="36" type="curve" smooth="yes"/>
      <point x="566" y="130" type="line"/>
      <point x="552" y="130" type="line"/>
      <point x="546" y="128"/>
      <point x="539" y="126"/>
      <point x="532" y="126" type="curve" smooth="yes"/>
      <point x="494" y="126"/>
      <point x="471" y="140"/>
      <point x="451" y="176" type="curve" smooth="yes"/>
    </contour>
  </outline>
</glyph>
<glyph name="S" format="1">
  <advance width="600"/>
  <unicode hex="0053"/>
  <outline>
    <contour>
      <point x="388" y="332" type="curve" smooth="yes"/>
      <point x="296" y="365" type="line" smooth="yes"/>
      <point x="220" y="392"/>
      <point x="201" y="414"/>
      <point x="201" y="451" type="curve" smooth="yes"/>
      <point x="201" y="471"/>
      <point x="204" y="503"/>
      <point x="214" y="534" type="curve"/>
      <point x="137" y="532"/>
      <point x="74" y="506"/>
      <point x="74" y="432" type="curve" smooth="yes"/>
      <point x="74" y="372"/>
      <point x="105" y="324"/>
      <point x="256" y="268" type="curve" smooth="yes"/>
      <point x="347" y="234" type="line" smooth="yes"/>
      <point x="456" y="194"/>
      <point x="459" y="161"/>
      <point x="459" y="98" type="curve"/>
      <point x="494" y="98"/>
      <point x="545" y="139"/>
      <point x="545" y="177" type="curve"/>
      <point x="545" y="227"/>
      <point x="513" y="287"/>
    </contour>
    <contour>
      <point x="300" y="-20" type="curve" smooth="yes"/>
      <point x="452" y="-20"/>
      <point x="545" y="40"/>
      <point x="545" y="119" type="curve" smooth="yes"/>
      <point x="545" y="177" type="line" smooth="yes"/>
      <point x="545" y="192"/>
      <point x="512" y="201"/>
      <point x="473" y="201" type="curve"/>
      <point x="454" y="137"/>
      <point x="398" y="110"/>
      <point x="300" y="110" type="curve" smooth="yes"/>
      <point x="202" y="110"/>
      <point x="132" y="139"/>
      <point x="78" y="193" type="curve"/>
      <point x="55" y="193" type="line"/>
      <point x="55" y="171"/>
      <point x="55" y="130"/>
      <point x="55" y="85" type="curve" smooth="yes"/>
      <point x="55" y="32"/>
      <point x="166" y="-20"/>
    </contour>
    <contour>
      <point x="380" y="720" type="curve" smooth="yes"/>
      <point x="235" y="720"/>
      <point x="74" y="584"/>
      <point x="74" y="480" type="curve" smooth="yes"/>
      <point x="74" y="432" type="line" smooth="yes"/>
      <point x="74" y="405"/>
      <point x="136" y="375"/>
      <point x="208" y="373" type="curve"/>
      <point x="201" y="399"/>
      <point x="201" y="427"/>
      <point x="201" y="451" type="curve" smooth="yes"/>
      <point x="201" y="521"/>
      <point x="300" y="601"/>
      <point x="382" y="601" type="curve" smooth="yes"/>
      <point x="403" y="601"/>
      <point x="425" y="600"/>
      <point x="452" y="586" type="curve"/>
      <point x="503" y="610"/>
      <point x="512" y="645"/>
      <point x="481" y="676" type="curve"/>
      <point x="454" y="703"/>
      <point x="419" y="720"/>
    </contour>
    <contour>
      <point x="520" y="450" type="line"/>
      <point x="520" y="584" type="line" smooth="yes"/>
      <point x="520" y="617"/>
      <point x="511" y="646"/>
      <point x="481" y="676" type="curve" smooth="yes"/>
      <point x="448" y="710"/>
      <point x="402" y="711"/>
      <point x="375" y="680" type="curve"/>
      <point x="384" y="667"/>
      <point x="390" y="631"/>
      <point x="390" y="604" type="curve" smooth="yes"/>
      <point x="390" y="499" type="line" smooth="yes"/>
      <point x="390" y="492"/>
      <point x="391" y="489"/>
      <point x="397" y="483" type="curve" smooth="yes"/>
      <point x="419" y="461"/>
      <point x="454" y="450"/>
      <point x="498" y="450" type="curve" smooth="yes"/>
    </contour>
  </outline>
</glyph>
<glyph name="T" format="1">
  <advance width="600"/>
  <unicode hex="0054"/>
  <outline>
    <contour>
      <point x="369" y="-14" type="line"/>
      <point x="369" y="197"/>
      <point x="369" y="413"/>
      <point x="369" y="623" type="curve" smooth="yes"/>
      <point x="369" y="631"/>
      <point x="367" y="634"/>
      <point x="362" y="639" type="curve" smooth="yes"/>
      <point x="349" y="652"/>
      <point x="295" y="664"/>
      <point x="253" y="664" type="curve" smooth="yes"/>
      <point x="231" y="664" type="line"/>
      <point x="231" y="559"/>
      <point x="231" y="414"/>
      <point x="231" y="309" type="curve" smooth="yes"/>
      <point x="231" y="206"/>
      <point x="231" y="137"/>
      <point x="231" y="35" type="curve" smooth="yes"/>
      <point x="231" y="27"/>
      <point x="233" y="24"/>
      <point x="238" y="19" type="curve" smooth="yes"/>
      <point x="261" y="-4"/>
      <point x="305" y="-14"/>
      <point x="347" y="-14" type="curve" smooth="yes"/>
    </contour>
    <contour>
      <point x="34" y="700" type="curve"/>
      <point x="34" y="678" type="line" smooth="yes"/>
      <point x="34" y="636"/>
      <point x="44" y="600"/>
      <point x="67" y="577" type="curve" smooth="yes"/>
      <point x="72" y="572"/>
      <point x="75" y="570"/>
      <point x="83" y="570" type="curve"/>
      <point x="135" y="570"/>
      <point x="132" y="570"/>
      <point x="185" y="570" type="curve"/>
      <point x="269" y="570"/>
      <point x="482" y="570"/>
      <point x="566" y="570" type="curve"/>
      <point x="566" y="592" type="line" smooth="yes"/>
      <point x="566" y="615"/>
      <point x="546" y="664"/>
      <point x="517" y="693" type="curve" smooth="yes"/>
      <point x="512" y="698"/>
      <point x="509" y="700"/>
      <point x="501" y="700" type="curve" smooth="yes"/>
      <point x="370" y="700"/>
      <point x="166" y="700"/>
    </contour>
  </outline>
</glyph>
<glyph name="a" format="1">
  <advance width="600"/>
  <unicode hex="0061"/>
  <outline>
    <contour>
      <point x="215" y="560" type="curve" smooth="yes"/>
      <point x="152" y="560"/>
      <point x="113" y="551"/>
      <point x="99" y="537" type="curve" smooth="yes"/>
      <point x="89" y="527"/>
      <point x="86" y="517"/>
      <point x="86" y="504" type="curve"/>
      <point x="86" y="417" type="line"/>
      <point x="104" y="417" type="line"/>
      <point x="155" y="430"/>
      <point x="226" y="438"/>
      <point x="275" y="438" type="curve" smooth="yes"/>
      <point x="339" y="438"/>
      <point x="385" y="432"/>
      <point x="457" y="421" type="curve"/>
      <point x="472" y="448"/>
      <point x="465" y="479"/>
      <point x="421" y="521" type="curve"/>
      <point x="393" y="549"/>
      <point x="336" y="560"/>
    </contour>
    <contour>
      <point x="367" y="516" type="curve"/>
      <point x="375" y="423"/>
      <point x="369" y="355"/>
      <point x="361" y="298" type="curve" smooth="yes"/>
      <point x="361" y="229"/>
      <point x="361" y="200"/>
      <point x="361" y="145" type="curve" smooth="yes"/>
      <point x="361" y="95"/>
      <point x="370" y="74"/>
      <point x="399" y="45" type="curve"/>
      <point x="425" y="20"/>
      <point x="507" y="27"/>
      <point x="510" y="57" type="curve"/>
      <point x="500" y="69"/>
      <point x="495" y="88"/>
      <point x="495" y="116" type="curve" smooth="yes"/>
      <point x="495" y="205"/>
      <point x="495" y="263"/>
      <point x="495" y="379" type="curve" smooth="yes"/>
      <point x="495" y="424"/>
      <point x="470" y="470"/>
      <point x="421" y="521" type="curve"/>
      <point x="407" y="537"/>
      <point x="379" y="533"/>
    </contour>
    <contour>
      <point x="408" y="275" type="curve" smooth="yes"/>
      <point x="385" y="298"/>
      <point x="321" y="311"/>
      <point x="223" y="311" type="curve" smooth="yes"/>
      <point x="174" y="311"/>
      <point x="148" y="301"/>
      <point x="114" y="267" type="curve" smooth="yes"/>
      <point x="93" y="245"/>
      <point x="85" y="208"/>
      <point x="101" y="195" type="curve"/>
      <point x="130" y="221"/>
      <point x="165" y="225"/>
      <point x="206" y="225" type="curve" smooth="yes"/>
      <point x="271" y="225"/>
      <point x="376" y="225"/>
      <point x="431" y="222" type="curve"/>
      <point x="429" y="242"/>
      <point x="420" y="263"/>
    </contour>
    <contour>
      <point x="185" y="144" type="curve" smooth="yes"/>
      <point x="185" y="192" type="line" smooth="yes"/>
      <point x="185" y="252"/>
      <point x="189" y="268"/>
      <point x="208" y="291" type="curve"/>
      <point x="173" y="301"/>
      <point x="138" y="291"/>
      <point x="114" y="267" type="curve" smooth="yes"/>
      <point x="68" y="220"/>
      <point x="55" y="197"/>
      <point x="55" y="160" type="curve" smooth="yes"/>
      <point x="55" y="123" type="line" smooth="yes"/>
      <point x="55" y="30"/>
      <point x="102" y="-20"/>
      <point x="188" y="-20" type="curve" smooth="yes"/>
      <point x="269" y="-20"/>
      <point x="331" y="23"/>
      <point x="378" y="101" type="curve" smooth="yes"/>
      <point x="388" y="117"/>
      <point x="392" y="132"/>
      <point x="392" y="157" type="curve"/>
      <point x="341" y="116"/>
      <point x="298" y="102"/>
      <point x="244" y="102" type="curve" smooth="yes"/>
      <point x="222" y="102" type="line" smooth="yes"/>
      <point x="194" y="102"/>
      <point x="185" y="112"/>
    </contour>
    <contour>
      <point x="509" y="-10" type="curve" smooth="yes"/>
      <point x="552" y="-10"/>
      <point x="571" y="7"/>
      <point x="571" y="47" type="curve"/>
      <point x="571" y="130" type="line"/>
      <point x="549" y="130" type="line"/>
      <point x="535" y="129"/>
      <point x="527" y="128"/>
      <point x="509" y="128" type="curve" smooth="yes"/>
      <point x="482" y="128"/>
      <point x="450" y="129"/>
      <point x="409" y="131" type="curve"/>
      <point x="391" y="112"/>
      <point x="382" y="62"/>
      <point x="399" y="45" type="curve"/>
      <point x="431" y="14"/>
      <point x="471" y="-10"/>
    </contour>
  </outline>
</glyph>
<glyph name="b" format="1">
  <advance width="600"/>
  <unicode hex="0062"/>
  <outline>
    <contour>
      <point x="210" y="-10" type="line"/>
      <point x="210" y="233"/>
      <point x="210" y="514"/>
      <point x="210" y="717" type="curve" smooth="yes"/>
      <point x="210" y="725"/>
      <point x="208" y="728"/>
      <point x="203" y="733" type="curve" smooth="yes"/>
      <point x="190" y="746"/>
      <point x="136" y="758"/>
      <point x="94" y="758" type="curve" smooth="yes"/>
      <point x="72" y="758" type="line"/>
      <point x="72" y="618"/>
      <point x="72" y="527"/>
      <point x="72" y="387" type="curve" smooth="yes"/>
      <point x="72" y="285"/>
      <point x="72" y="141"/>
      <point x="72" y="39" type="curve" smooth="yes"/>
      <point x="72" y="31"/>
      <point x="74" y="28"/>
      <point x="79" y="23" type="curve" smooth="yes"/>
      <point x="102" y="0"/>
      <point x="146" y="-10"/>
      <point x="188" y="-10" type="curve" smooth="yes"/>
    </contour>
    <contour>
      <point x="397" y="552" type="curve" smooth="yes"/>
      <point x="333" y="552"/>
      <point x="248" y="490"/>
      <point x="194" y="424" type="curve" smooth="yes"/>
      <point x="168" y="392"/>
      <point x="162" y="377"/>
      <point x="163" y="320" type="curve"/>
      <point x="252" y="395"/>
      <point x="314" y="414"/>
      <point x="389" y="414" type="curve" smooth="yes"/>
      <point x="441" y="414"/>
      <point x="471" y="378"/>
      <point x="503" y="323" type="curve"/>
      <point x="536" y="324"/>
      <point x="555" y="349"/>
      <point x="555" y="369" type="curve" smooth="yes"/>
      <point x="555" y="462"/>
      <point x="469" y="552"/>
    </contour>
    <contour>
      <point x="341" y="-20" type="curve" smooth="yes"/>
      <point x="479" y="-20"/>
      <point x="555" y="138"/>
      <point x="555" y="329" type="curve" smooth="yes"/>
      <point x="555" y="369" type="line" smooth="yes"/>
      <point x="555" y="414"/>
      <point x="516" y="480"/>
      <point x="461" y="480" type="curve"/>
      <point x="420" y="480"/>
      <point x="389" y="469"/>
      <point x="388" y="440" type="curve"/>
      <point x="404" y="420"/>
      <point x="413" y="398"/>
      <point x="413" y="351" type="curve" smooth="yes"/>
      <point x="413" y="329" type="line" smooth="yes"/>
      <point x="413" y="192"/>
      <point x="356" y="106"/>
      <point x="281" y="106" type="curve" smooth="yes"/>
      <point x="246" y="106"/>
      <point x="220" y="111"/>
      <point x="195" y="124" type="curve"/>
      <point x="191" y="120"/>
      <point x="189" y="117"/>
      <point x="189" y="109" type="curve"/>
      <point x="189" y="66"/>
      <point x="263" y="-20"/>
    </contour>
  </outline>
</glyph>
<glyph name="c" format="1">
  <advance width="600"/>
  <unicode hex="0063"/>
  <outline>
    <contour>
      <point x="359" y="560" type="curve" smooth="yes"/>
      <point x="185" y="560"/>
      <point x="55" y="427"/>
      <point x="55" y="257" type="curve" smooth="yes"/>
      <point x="55" y="227" type="line" smooth="yes"/>
      <point x="55" y="163"/>
      <point x="75" y="106"/>
      <point x="126" y="55" type="curve" smooth="yes"/>
      <point x="154" y="27"/>
      <point x="216" y="10"/>
      <point x="244" y="38" type="curve"/>
      <point x="220" y="73"/>
      <point x="185" y="148"/>
      <point x="185" y="214" type="curve" smooth="yes"/>
      <point x="185" y="249" type="line" smooth="yes"/>
      <point x="185" y="342"/>
      <point x="247" y="430"/>
      <point x="352" y="430" type="curve" smooth="yes"/>
      <point x="393" y="430"/>
      <point x="442" y="424"/>
      <point x="477" y="418" type="curve"/>
      <point x="505" y="430"/>
      <point x="523" y="462"/>
      <point x="482" y="502" type="curve"/>
      <point x="434" y="550"/>
      <point x="414" y="560"/>
    </contour>
    <contour>
      <point x="119" y="158" type="curve"/>
      <point x="92" y="131"/>
      <point x="97" y="84"/>
      <point x="126" y="55" type="curve" smooth="yes"/>
      <point x="174" y="7"/>
      <point x="211" y="-20"/>
      <point x="283" y="-20" type="curve" smooth="yes"/>
      <point x="329" y="-20" type="line" smooth="yes"/>
      <point x="425" y="-20"/>
      <point x="483" y="2"/>
      <point x="509" y="28" type="curve" smooth="yes"/>
      <point x="520" y="39"/>
      <point x="525" y="51"/>
      <point x="525" y="69" type="curve" smooth="yes"/>
      <point x="525" y="102"/>
      <point x="525" y="132"/>
      <point x="525" y="160" type="curve"/>
      <point x="503" y="160" type="line"/>
      <point x="467" y="123"/>
      <point x="400" y="110"/>
      <point x="300" y="110" type="curve" smooth="yes"/>
      <point x="226" y="110"/>
      <point x="166" y="122"/>
    </contour>
    <contour>
      <point x="525" y="298" type="line"/>
      <point x="525" y="416" type="line" smooth="yes"/>
      <point x="525" y="448"/>
      <point x="513" y="471"/>
      <point x="482" y="502" type="curve" smooth="yes"/>
      <point x="449" y="536"/>
      <point x="404" y="536"/>
      <point x="376" y="507" type="curve"/>
      <point x="386" y="495"/>
      <point x="395" y="455"/>
      <point x="395" y="426" type="curve" smooth="yes"/>
      <point x="395" y="347" type="line" smooth="yes"/>
      <point x="395" y="340"/>
      <point x="396" y="337"/>
      <point x="402" y="331" type="curve" smooth="yes"/>
      <point x="424" y="309"/>
      <point x="459" y="298"/>
      <point x="503" y="298" type="curve" smooth="yes"/>
    </contour>
  </outline>
</glyph>
<glyph name="d" format="1">
  <advance width="600"/>
  <unicode hex="0064"/>
  <outline>
    <contour>
      <point x="262" y="560" type="curve" smooth="yes"/>
      <point x="151" y="560"/>
      <point x="47" y="456"/>
      <point x="47" y="233" type="curve" smooth="yes"/>
      <point x="47" y="187" type="line" smooth="yes"/>
      <point x="47" y="139"/>
      <point x="89" y="69"/>
      <point x="163" y="69" type="curve"/>
      <point x="189" y="69"/>
      <point x="209" y="78"/>
      <point x="209" y="102" type="curve"/>
      <point x="194" y="122"/>
      <point x="189" y="156"/>
      <point x="189" y="221" type="curve" smooth="yes"/>
      <point x="189" y="235" type="line" smooth="yes"/>
      <point x="189" y="372"/>
      <point x="225" y="442"/>
      <point x="306" y="442" type="curve" smooth="yes"/>
      <point x="350" y="442"/>
      <point x="375" y="437"/>
      <point x="407" y="430" type="curve"/>
      <point x="417" y="434"/>
      <point x="417" y="460"/>
      <point x="407" y="475" type="curve"/>
      <point x="384" y="516"/>
      <point x="328" y="560"/>
    </contour>
    <contour>
      <point x="528" y="-10" type="line"/>
      <point x="528" y="234"/>
      <point x="528" y="516"/>
      <point x="528" y="719" type="curve" smooth="yes"/>
      <point x="528" y="727"/>
      <point x="526" y="730"/>
      <point x="521" y="735" type="curve" smooth="yes"/>
      <point x="508" y="748"/>
      <point x="454" y="760"/>
      <point x="412" y="760" type="curve" smooth="yes"/>
      <point x="390" y="760" type="line"/>
      <point x="390" y="636"/>
      <point x="390" y="559"/>
      <point x="390" y="435" type="curve" smooth="yes"/>
      <point x="390" y="317"/>
      <point x="390" y="157"/>
      <point x="390" y="39" type="curve" smooth="yes"/>
      <point x="390" y="31"/>
      <point x="392" y="28"/>
      <point x="397" y="23" type="curve" smooth="yes"/>
      <point x="420" y="0"/>
      <point x="464" y="-10"/>
      <point x="506" y="-10" type="curve" smooth="yes"/>
    </contour>
    <contour>
      <point x="203" y="-12" type="curve" smooth="yes"/>
      <point x="263" y="-12"/>
      <point x="358" y="58"/>
      <point x="406" y="116" type="curve" smooth="yes"/>
      <point x="433" y="148"/>
      <point x="438" y="163"/>
      <point x="437" y="220" type="curve"/>
      <point x="348" y="145"/>
      <point x="286" y="126"/>
      <point x="211" y="126" type="curve" smooth="yes"/>
      <point x="155" y="126"/>
      <point x="135" y="174"/>
      <point x="94" y="238" type="curve"/>
      <point x="62" y="237"/>
      <point x="47" y="209"/>
      <point x="47" y="187" type="curve" smooth="yes"/>
      <point x="47" y="83"/>
      <point x="121" y="-12"/>
    </contour>
  </outline>
</glyph>
<glyph name="e" format="1">
  <advance width="600"/>
  <unicode hex="0065"/>
  <outline>
    <contour>
      <point x="360" y="560" type="curve"/>
      <point x="176" y="560"/>
      <point x="55" y="450"/>
      <point x="55" y="279" type="curve" smooth="yes"/>
      <point x="55" y="219" type="line"/>
      <point x="55" y="149"/>
      <point x="84" y="98"/>
      <point x="125" y="56" type="curve"/>
      <point x="153" y="28"/>
      <point x="200" y="21"/>
      <point x="239" y="43" type="curve"/>
      <point x="205" y="103"/>
      <point x="185" y="155"/>
      <point x="185" y="215" type="curve" smooth="yes"/>
      <point x="185" y="266" type="line" smooth="yes"/>
      <point x="185" y="385"/>
      <point x="254" y="430"/>
      <point x="344" y="430" type="curve" smooth="yes"/>
      <point x="394" y="430"/>
      <point x="426" y="424"/>
      <point x="454" y="404" type="curve"/>
      <point x="481" y="404"/>
      <point x="495" y="426"/>
      <point x="495" y="447" type="curve"/>
      <point x="495" y="511"/>
      <point x="422" y="560"/>
    </contour>
    <contour>
      <point x="352" y="215" type="line" smooth="yes"/>
      <point x="486" y="215"/>
      <point x="545" y="302"/>
      <point x="545" y="372" type="curve" smooth="yes"/>
      <point x="545" y="404" type="line" smooth="yes"/>
      <point x="545" y="463"/>
      <point x="457" y="560"/>
      <point x="369" y="560" type="curve" smooth="yes"/>
      <point x="360" y="560" type="line" smooth="yes"/>
      <point x="315" y="560"/>
      <point x="284" y="527"/>
      <point x="284" y="480" type="curve"/>
      <point x="367" y="480"/>
      <point x="415" y="457"/>
      <point x="415" y="407" type="curve" smooth="yes"/>
      <point x="415" y="365" type="line" smooth="yes"/>
      <point x="415" y="326"/>
      <point x="391" y="305"/>
      <point x="349" y="305" type="curve" smooth="yes"/>
      <point x="269" y="305"/>
      <point x="232" y="305"/>
      <point x="176" y="305" type="curve"/>
      <point x="173" y="300"/>
      <point x="173" y="295"/>
      <point x="173" y="289" type="curve"/>
      <point x="176" y="259"/>
      <point x="236" y="215"/>
      <point x="300" y="215" type="curve" smooth="yes"/>
    </contour>
    <contour>
      <point x="114" y="170" type="curve"/>
      <point x="83" y="140"/>
      <point x="95" y="87"/>
      <point x="125" y="56" type="curve"/>
      <point x="174" y="7"/>
      <point x="214" y="-20"/>
      <point x="288" y="-20" type="curve" smooth="yes"/>
      <point x="328" y="-20" type="line" smooth="yes"/>
      <point x="423" y="-20"/>
      <point x="485" y="3"/>
      <point x="509" y="28" type="curve" smooth="yes"/>
      <point x="520" y="40"/>
      <point x="525" y="52"/>
      <point x="525" y="70" type="curve"/>
      <point x="525" y="101"/>
      <point x="525" y="134"/>
      <point x="525" y="160" type="curve"/>
      <point x="503" y="160" type="line"/>
      <point x="467" y="123"/>
      <point x="400" y="110"/>
      <point x="300" y="110" type="curve" smooth="yes"/>
      <point x="224" y="110"/>
      <point x="161" y="125"/>
    </contour>
  </outline>
</glyph>
<glyph name="f" format="1">
  <advance width="600"/>
  <unicode hex="0066"/>
  <outline>
    <contour>
      <point x="245" y="617" type="curve"/>
      <point x="293" y="645"/>
      <point x="344" y="652"/>
      <point x="400" y="652" type="curve" smooth="yes"/>
      <point x="464" y="652"/>
      <point x="519" y="639"/>
      <point x="548" y="625" type="curve"/>
      <point x="570" y="625" type="line"/>
      <point x="570" y="648" type="line"/>
      <point x="570" y="689"/>
      <point x="559" y="726"/>
      <point x="546" y="742" type="curve" smooth="yes"/>
      <point x="532" y="758"/>
      <point x="483" y="770"/>
      <point x="441" y="770" type="curve"/>
      <point x="423" y="770" type="line"/>
      <point x="352" y="770"/>
      <point x="298" y="765"/>
      <point x="240" y="708" type="curve" smooth="yes"/>
      <point x="216" y="684"/>
      <point x="213" y="639"/>
    </contour>
    <contour>
      <point x="310" y="-10" type="line"/>
      <point x="310" y="182"/>
      <point x="310" y="317"/>
      <point x="310" y="500" type="curve" smooth="yes"/>
      <point x="298" y="580"/>
      <point x="289" y="654"/>
      <point x="301" y="721" type="curve"/>
      <point x="279" y="731"/>
      <point x="259" y="727"/>
      <point x="240" y="708" type="curve" smooth="yes"/>
      <point x="197" y="664"/>
      <point x="180" y="632"/>
      <point x="180" y="584" type="curve"/>
      <point x="180" y="439"/>
      <point x="180" y="239"/>
      <point x="180" y="39" type="curve"/>
      <point x="180" y="31"/>
      <point x="182" y="28"/>
      <point x="187" y="23" type="curve" smooth="yes"/>
      <point x="210" y="0"/>
      <point x="246" y="-10"/>
      <point x="288" y="-10" type="curve" smooth="yes"/>
    </contour>
    <contour>
      <point x="30" y="490" type="curve"/>
      <point x="30" y="468" type="line" smooth="yes"/>
      <point x="30" y="424"/>
      <point x="41" y="389"/>
      <point x="63" y="367" type="curve" smooth="yes"/>
      <point x="69" y="361"/>
      <point x="72" y="360"/>
      <point x="79" y="360" type="curve"/>
      <point x="132" y="360"/>
      <point x="200" y="360"/>
      <point x="253" y="360" type="curve"/>
      <point x="295" y="360"/>
      <point x="509" y="360"/>
      <point x="540" y="360" type="curve"/>
      <point x="540" y="382" type="line" smooth="yes"/>
      <point x="540" y="427"/>
      <point x="529" y="461"/>
      <point x="507" y="483" type="curve" smooth="yes"/>
      <point x="501" y="489"/>
      <point x="498" y="490"/>
      <point x="491" y="490" type="curve" smooth="yes"/>
      <point x="411" y="490"/>
      <point x="112" y="490"/>
    </contour>
  </outline>
</glyph>
<glyph name="g" format="1">
  <advance width="600"/>
  <unicode hex="0067"/>
  <outline>
    <contour>
      <point x="323" y="447" type="curve" smooth="yes"/>
      <point x="371" y="447"/>
      <point x="413" y="438"/>
      <point x="444" y="424" type="curve"/>
      <point x="477" y="472"/>
      <point x="477" y="508"/>
      <point x="458" y="527" type="curve" smooth="yes"/>
      <point x="437" y="548"/>
      <point x="375" y="560"/>
      <point x="315" y="560" type="curve" smooth="yes"/>
      <point x="174" y="560"/>
      <point x="64" y="481"/>
      <point x="64" y="358" type="curve" smooth="yes"/>
      <point x="64" y="332" type="line" smooth="yes"/>
      <point x="64" y="290"/>
      <point x="82" y="251"/>
      <point x="125" y="207" type="curve" smooth="yes"/>
      <point x="139" y="194"/>
      <point x="206" y="188"/>
      <point x="217" y="202" type="curve"/>
      <point x="197" y="238"/>
      <point x="186" y="263"/>
      <point x="186" y="316" type="curve" smooth="yes"/>
      <point x="186" y="335" type="line" smooth="yes"/>
      <point x="186" y="418"/>
      <point x="230" y="447"/>
    </contour>
    <contour>
      <point x="297" y="267" type="curve" smooth="yes"/>
      <point x="236" y="267"/>
      <point x="160" y="272"/>
      <point x="115" y="293" type="curve"/>
      <point x="104" y="264"/>
      <point x="104" y="229"/>
      <point x="125" y="207" type="curve" smooth="yes"/>
      <point x="177" y="156"/>
      <point x="235" y="153"/>
      <point x="309" y="153" type="curve" smooth="yes"/>
      <point x="446" y="153"/>
      <point x="536" y="234"/>
      <point x="536" y="347" type="curve" smooth="yes"/>
      <point x="536" y="373" type="line" smooth="yes"/>
      <point x="536" y="423"/>
      <point x="526" y="459"/>
      <point x="458" y="527" type="curve" smooth="yes"/>
      <point x="438" y="547"/>
      <point x="386" y="538"/>
      <point x="364" y="516" type="curve"/>
      <point x="397" y="489"/>
      <point x="414" y="454"/>
      <point x="414" y="386" type="curve" smooth="yes"/>
      <point x="414" y="369" type="line" smooth="yes"/>
      <point x="414" y="303"/>
      <point x="368" y="267"/>
    </contour>
    <contour>
      <point x="160" y="54" type="curve" smooth="yes"/>
      <point x="160" y="41" type="line" smooth="yes"/>
      <point x="160" y="-17"/>
      <point x="213" y="-53"/>
      <point x="297" y="-53" type="curve" smooth="yes"/>
      <point x="414" y="-53" type="line" smooth="yes"/>
      <point x="431" y="-53"/>
      <point x="442" y="-66"/>
      <point x="442" y="-84" type="curve" smooth="yes"/>
      <point x="442" y="-121" type="line" smooth="yes"/>
      <point x="442" y="-153"/>
      <point x="440" y="-177"/>
      <point x="435" y="-203" type="curve"/>
      <point x="454" y="-205"/>
      <point x="507" y="-193"/>
      <point x="520" y="-180" type="curve" smooth="yes"/>
      <point x="557" y="-144"/>
      <point x="570" y="-115"/>
      <point x="570" y="-70" type="curve" smooth="yes"/>
      <point x="570" y="-57" type="line" smooth="yes"/>
      <point x="570" y="13"/>
      <point x="515" y="65"/>
      <point x="443" y="65" type="curve" smooth="yes"/>
      <point x="303" y="65" type="line" smooth="yes"/>
      <point x="287" y="65"/>
      <point x="282" y="70"/>
      <point x="282" y="86" type="curve" smooth="yes"/>
      <point x="282" y="117" type="line" smooth="yes"/>
      <point x="282" y="134"/>
      <point x="285" y="155"/>
      <point x="289" y="170" type="curve"/>
      <point x="289" y="177"/>
      <point x="288" y="183"/>
      <point x="286" y="187" type="curve" smooth="yes"/>
      <point x="241" y="187"/>
      <point x="160" y="112"/>
    </contour>
    <contour>
      <point x="545" y="-99" type="curve"/>
      <point x="465" y="-155"/>
      <point x="411" y="-160"/>
      <point x="333" y="-160" type="curve"/>
      <point x="258" y="-160" type="line"/>
      <point x="188" y="-160"/>
      <point x="159" y="-143"/>
      <point x="159" y="-101" type="curve" smooth="yes"/>
      <point x="159" y="-76" type="line" smooth="yes"/>
      <point x="159" y="-49"/>
      <point x="178" y="-28"/>
      <point x="222" y="-6" type="curve"/>
      <point x="222" y="8"/>
      <point x="211" y="19"/>
      <point x="197" y="19" type="curve"/>
      <point x="94" y="19"/>
      <point x="30" y="-35"/>
      <point x="30" y="-111" type="curve" smooth="yes"/>
      <point x="30" y="-123" type="line" smooth="yes"/>
      <point x="30" y="-197"/>
      <point x="113" y="-250"/>
      <point x="229" y="-250" type="curve"/>
      <point x="282" y="-250" type="line"/>
      <point x="384" y="-250"/>
      <point x="467" y="-233"/>
      <point x="520" y="-180" type="curve"/>
      <point x="550" y="-151"/>
      <point x="560" y="-115"/>
    </contour>
    <contour>
      <point x="449" y="505" type="curve" smooth="yes"/>
      <point x="529" y="567" type="line" smooth="yes"/>
      <point x="555" y="588"/>
      <point x="570" y="606"/>
      <point x="570" y="632" type="curve" smooth="yes"/>
      <point x="570" y="638"/>
      <point x="570" y="648"/>
      <point x="570" y="656" type="curve" smooth="yes"/>
      <point x="570" y="664"/>
      <point x="568" y="667"/>
      <point x="563" y="672" type="curve" smooth="yes"/>
      <point x="540" y="695"/>
      <point x="496" y="705"/>
      <point x="454" y="705" type="curve" smooth="yes"/>
      <point x="440" y="705" type="line"/>
      <point x="440" y="693"/>
      <point x="440" y="680"/>
      <point x="440" y="668" type="curve" smooth="yes"/>
      <point x="440" y="649"/>
      <point x="437" y="636"/>
      <point x="433" y="619" type="curve" smooth="yes"/>
      <point x="405" y="513" type="line"/>
      <point x="417" y="503"/>
      <point x="438" y="498"/>
    </contour>
  </outline>
</glyph>
<glyph name="h" format="1">
  <advance width="600"/>
  <unicode hex="0068"/>
  <outline>
    <contour>
      <point x="210" y="-10" type="line"/>
      <point x="210" y="164"/>
      <point x="210" y="583"/>
      <point x="210" y="717" type="curve" smooth="yes"/>
      <point x="210" y="725"/>
      <point x="208" y="728"/>
      <point x="203" y="733" type="curve" smooth="yes"/>
      <point x="190" y="746"/>
      <point x="136" y="758"/>
      <point x="94" y="758" type="curve" smooth="yes"/>
      <point x="72" y="758" type="line"/>
      <point x="72" y="640"/>
      <point x="72" y="315"/>
      <point x="72" y="197" type="curve" smooth="yes"/>
      <point x="72" y="145"/>
      <point x="72" y="91"/>
      <point x="72" y="39" type="curve" smooth="yes"/>
      <point x="72" y="31"/>
      <point x="74" y="28"/>
      <point x="79" y="23" type="curve" smooth="yes"/>
      <point x="102" y="0"/>
      <point x="146" y="-10"/>
      <point x="188" y="-10" type="curve" smooth="yes"/>
    </contour>
    <contour>
      <point x="391" y="552" type="curve" smooth="yes"/>
      <point x="332" y="552"/>
      <point x="242" y="481"/>
      <point x="194" y="424" type="curve" smooth="yes"/>
      <point x="167" y="392"/>
      <point x="162" y="377"/>
      <point x="163" y="320" type="curve"/>
      <point x="259" y="417"/>
      <point x="310" y="422"/>
      <point x="383" y="422" type="curve" smooth="yes"/>
      <point x="425" y="422"/>
      <point x="457" y="407"/>
      <point x="484" y="373" type="curve"/>
      <point x="513" y="375"/>
      <point x="528" y="393"/>
      <point x="528" y="413" type="curve" smooth="yes"/>
      <point x="528" y="467"/>
      <point x="455" y="552"/>
    </contour>
    <contour>
      <point x="528" y="-10" type="line"/>
      <point x="528" y="138"/>
      <point x="528" y="265"/>
      <point x="528" y="413" type="curve" smooth="yes"/>
      <point x="528" y="420"/>
      <point x="526" y="424"/>
      <point x="521" y="429" type="curve" smooth="yes"/>
      <point x="498" y="451"/>
      <point x="454" y="462"/>
      <point x="412" y="462" type="curve" smooth="yes"/>
      <point x="390" y="462" type="line"/>
      <point x="390" y="368"/>
      <point x="390" y="292"/>
      <point x="390" y="197" type="curve" smooth="yes"/>
      <point x="390" y="145"/>
      <point x="390" y="91"/>
      <point x="390" y="39" type="curve" smooth="yes"/>
      <point x="390" y="31"/>
      <point x="392" y="28"/>
      <point x="397" y="23" type="curve" smooth="yes"/>
      <point x="420" y="0"/>
      <point x="464" y="-10"/>
      <point x="506" y="-10" type="curve" smooth="yes"/>
    </contour>
  </outline>
</glyph>
<glyph name="i" format="1">
  <advance width="600"/>
  <unicode hex="0069"/>
  <outline>
    <contour>
      <point x="34" y="540" type="curve"/>
      <point x="34" y="518" type="line" smooth="yes"/>
      <point x="34" y="476"/>
      <point x="44" y="440"/>
      <point x="67" y="417" type="curve" smooth="yes"/>
      <point x="72" y="412"/>
      <point x="75" y="410"/>
      <point x="83" y="410" type="curve"/>
      <point x="122" y="410"/>
      <point x="156" y="410"/>
      <point x="196" y="410" type="curve"/>
      <point x="225" y="410"/>
      <point x="254" y="410"/>
      <point x="272" y="410" type="curve"/>
      <point x="272" y="432" type="line" smooth="yes"/>
      <point x="272" y="474"/>
      <point x="263" y="509"/>
      <point x="240" y="533" type="curve" smooth="yes"/>
      <point x="234" y="538"/>
      <point x="231" y="540"/>
      <point x="224" y="540" type="curve" smooth="yes"/>
      <point x="165" y="540"/>
      <point x="94" y="540"/>
    </contour>
    <contour>
      <point x="342" y="507" type="curve" smooth="yes"/>
      <point x="319" y="530"/>
      <point x="283" y="540"/>
      <point x="241" y="540" type="curve" smooth="yes"/>
      <point x="219" y="540" type="line"/>
      <point x="219" y="149" type="line" smooth="yes"/>
      <point x="219" y="102"/>
      <point x="230" y="79"/>
      <point x="272" y="37" type="curve"/>
      <point x="302" y="6"/>
      <point x="343" y="4"/>
      <point x="357" y="18" type="curve"/>
      <point x="351" y="64"/>
      <point x="349" y="107"/>
      <point x="349" y="156" type="curve" smooth="yes"/>
      <point x="349" y="491" type="line" smooth="yes"/>
      <point x="349" y="499"/>
      <point x="347" y="502"/>
    </contour>
    <contour>
      <point x="569" y="164" type="line"/>
      <point x="550" y="164" type="line"/>
      <point x="514" y="122"/>
      <point x="468" y="110"/>
      <point x="402" y="110" type="curve" smooth="yes"/>
      <point x="346" y="110"/>
      <point x="297" y="111"/>
      <point x="258" y="121" type="curve"/>
      <point x="236" y="100"/>
      <point x="247" y="62"/>
      <point x="272" y="37" type="curve" smooth="yes"/>
      <point x="321" y="-12"/>
      <point x="350" y="-20"/>
      <point x="397" y="-20" type="curve" smooth="yes"/>
      <point x="456" y="-20"/>
      <point x="513" y="-15"/>
      <point x="546" y="18" type="curve" smooth="yes"/>
      <point x="560" y="33"/>
      <point x="569" y="53"/>
      <point x="569" y="82" type="curve"/>
    </contour>
    <contour>
      <point x="367" y="621" type="line"/>
      <point x="367" y="652"/>
      <point x="367" y="696"/>
      <point x="367" y="727" type="curve" smooth="yes"/>
      <point x="367" y="735"/>
      <point x="365" y="738"/>
      <point x="359" y="744" type="curve" smooth="yes"/>
      <point x="339" y="764"/>
      <point x="313" y="770"/>
      <point x="279" y="770" type="curve"/>
      <point x="206" y="770" type="line"/>
      <point x="206" y="739"/>
      <point x="206" y="696"/>
      <point x="206" y="664" type="curve" smooth="yes"/>
      <point x="206" y="656"/>
      <point x="208" y="653"/>
      <point x="214" y="647" type="curve" smooth="yes"/>
      <point x="233" y="628"/>
      <point x="260" y="621"/>
      <point x="294" y="621" type="curve"/>
    </contour>
  </outline>
</glyph>
<glyph name="j" format="1">
  <advance width="600"/>
  <unicode hex="006A"/>
  <outline>
    <contour>
      <point x="50" y="540" type="curve"/>
      <point x="50" y="518" type="line" smooth="yes"/>
      <point x="50" y="476"/>
      <point x="60" y="440"/>
      <point x="83" y="417" type="curve" smooth="yes"/>
      <point x="88" y="412"/>
      <point x="91" y="410"/>
      <point x="99" y="410" type="curve"/>
      <point x="140" y="410"/>
      <point x="263" y="410"/>
      <point x="304" y="410" type="curve"/>
      <point x="334" y="410"/>
      <point x="364" y="410"/>
      <point x="384" y="410" type="curve"/>
      <point x="384" y="432" type="line" smooth="yes"/>
      <point x="384" y="474"/>
      <point x="375" y="509"/>
      <point x="352" y="533" type="curve" smooth="yes"/>
      <point x="346" y="538"/>
      <point x="343" y="540"/>
      <point x="336" y="540" type="curve" smooth="yes"/>
      <point x="275" y="540"/>
      <point x="111" y="540"/>
    </contour>
    <contour>
      <point x="266" y="-250" type="line"/>
      <point x="323" y="-250"/>
      <point x="445" y="-172"/>
      <point x="445" y="0" type="curve" smooth="yes"/>
      <point x="445" y="166"/>
      <point x="445" y="333"/>
      <point x="445" y="499" type="curve" smooth="yes"/>
      <point x="445" y="507"/>
      <point x="443" y="510"/>
      <point x="438" y="515" type="curve" smooth="yes"/>
      <point x="425" y="528"/>
      <point x="379" y="540"/>
      <point x="337" y="540" type="curve" smooth="yes"/>
      <point x="315" y="540" type="line"/>
      <point x="315" y="432"/>
      <point x="315" y="314"/>
      <point x="315" y="217" type="curve"/>
      <point x="315" y="144"/>
      <point x="315" y="72"/>
      <point x="315" y="0" type="curve" smooth="yes"/>
      <point x="315" y="-97"/>
      <point x="255" y="-128"/>
      <point x="178" y="-129" type="curve"/>
      <point x="178" y="-200"/>
      <point x="213" y="-250"/>
      <point x="236" y="-250" type="curve" smooth="yes"/>
    </contour>
    <contour>
      <point x="66" y="-120" type="curve"/>
      <point x="66" y="-142" type="line" smooth="yes"/>
      <point x="66" y="-184"/>
      <point x="76" y="-220"/>
      <point x="99" y="-243" type="curve" smooth="yes"/>
      <point x="104" y="-248"/>
      <point x="107" y="-250"/>
      <point x="115" y="-250" type="curve"/>
      <point x="146" y="-250"/>
      <point x="235" y="-250"/>
      <point x="266" y="-250" type="curve" smooth="yes"/>
      <point x="324" y="-250"/>
      <point x="373" y="-179"/>
      <point x="373" y="-120" type="curve"/>
      <point x="312" y="-120"/>
      <point x="127" y="-120"/>
    </contour>
    <contour>
      <point x="455" y="621" type="line"/>
      <point x="455" y="652"/>
      <point x="455" y="696"/>
      <point x="455" y="727" type="curve" smooth="yes"/>
      <point x="455" y="735"/>
      <point x="453" y="738"/>
      <point x="447" y="744" type="curve" smooth="yes"/>
      <point x="427" y="764"/>
      <point x="401" y="770"/>
      <point x="367" y="770" type="curve"/>
      <point x="294" y="770" type="line"/>
      <point x="294" y="739"/>
      <point x="294" y="696"/>
      <point x="294" y="664" type="curve" smooth="yes"/>
      <point x="294" y="656"/>
      <point x="296" y="653"/>
      <point x="302" y="647" type="curve" smooth="yes"/>
      <point x="321" y="628"/>
      <point x="348" y="621"/>
      <point x="382" y="621" type="curve"/>
    </contour>
  </outline>
</glyph>
<glyph name="k" format="1">
  <advance width="600"/>
  <unicode hex="006B"/>
  <outline>
    <contour>
      <point x="202" y="-10" type="line"/>
      <point x="202" y="164"/>
      <point x="202" y="584"/>
      <point x="202" y="717" type="curve" smooth="yes"/>
      <point x="202" y="725"/>
      <point x="200" y="728"/>
      <point x="195" y="733" type="curve" smooth="yes"/>
      <point x="182" y="746"/>
      <point x="136" y="758"/>
      <point x="94" y="758" type="curve" smooth="yes"/>
      <point x="72" y="758" type="line"/>
      <point x="72" y="640"/>
      <point x="72" y="315"/>
      <point x="72" y="197" type="curve" smooth="yes"/>
      <point x="72" y="145"/>
      <point x="72" y="91"/>
      <point x="72" y="39" type="curve" smooth="yes"/>
      <point x="72" y="31"/>
      <point x="74" y="28"/>
      <point x="79" y="23" type="curve" smooth="yes"/>
      <point x="102" y="0"/>
      <point x="138" y="-10"/>
      <point x="180" y="-10" type="curve" smooth="yes"/>
    </contour>
    <contour>
      <point x="305" y="314" type="line"/>
      <point x="242" y="259"/>
      <point x="237" y="214"/>
      <point x="254" y="195" type="curve" smooth="yes"/>
      <point x="367" y="63" type="line" smooth="yes"/>
      <point x="425" y="-4"/>
      <point x="452" y="-20"/>
      <point x="508" y="-20" type="curve" smooth="yes"/>
      <point x="527" y="-20"/>
      <point x="550" y="-6"/>
      <point x="550" y="14" type="curve" smooth="yes"/>
      <point x="550" y="130" type="line"/>
      <point x="528" y="130" type="line"/>
      <point x="520" y="128"/>
      <point x="509" y="126"/>
      <point x="500" y="126" type="curve" smooth="yes"/>
      <point x="468" y="126"/>
      <point x="454" y="134"/>
      <point x="434" y="158" type="curve" smooth="yes"/>
    </contour>
    <contour>
      <point x="437" y="550" type="curve" smooth="yes"/>
      <point x="416" y="550" type="line"/>
      <point x="357" y="374"/>
      <point x="254" y="280"/>
      <point x="120" y="229" type="curve"/>
      <point x="120" y="185"/>
      <point x="146" y="163"/>
      <point x="168" y="166" type="curve" smooth="yes"/>
      <point x="304" y="191"/>
      <point x="446" y="282"/>
      <point x="533" y="463" type="curve" smooth="yes"/>
      <point x="542" y="482"/>
      <point x="543" y="488"/>
      <point x="543" y="495" type="curve" smooth="yes"/>
      <point x="543" y="522"/>
      <point x="488" y="550"/>
    </contour>
  </outline>
</glyph>
<glyph name="l" format="1">
  <advance width="600"/>
  <unicode hex="006C"/>
  <outline>
    <contour>
      <point x="34" y="750" type="curve"/>
      <point x="34" y="728" type="line" smooth="yes"/>
      <point x="34" y="686"/>
      <point x="44" y="650"/>
      <point x="67" y="627" type="curve" smooth="yes"/>
      <point x="72" y="622"/>
      <point x="75" y="620"/>
      <point x="83" y="620" type="curve"/>
      <point x="147" y="620"/>
      <point x="221" y="620"/>
      <point x="264" y="620" type="curve"/>
      <point x="264" y="642" type="line" smooth="yes"/>
      <point x="264" y="684"/>
      <point x="255" y="719"/>
      <point x="232" y="743" type="curve" smooth="yes"/>
      <point x="226" y="748"/>
      <point x="223" y="750"/>
      <point x="216" y="750" type="curve" smooth="yes"/>
      <point x="159" y="750"/>
      <point x="91" y="750"/>
    </contour>
    <contour>
      <point x="334" y="717" type="curve" smooth="yes"/>
      <point x="311" y="740"/>
      <point x="275" y="750"/>
      <point x="233" y="750" type="curve" smooth="yes"/>
      <point x="211" y="750" type="line"/>
      <point x="211" y="149" type="line" smooth="yes"/>
      <point x="211" y="102"/>
      <point x="222" y="79"/>
      <point x="264" y="37" type="curve"/>
      <point x="294" y="6"/>
      <point x="335" y="4"/>
      <point x="349" y="18" type="curve"/>
      <point x="343" y="64"/>
      <point x="341" y="107"/>
      <point x="341" y="156" type="curve" smooth="yes"/>
      <point x="341" y="701" type="line" smooth="yes"/>
      <point x="341" y="709"/>
      <point x="339" y="712"/>
    </contour>
    <contour>
      <point x="569" y="164" type="line"/>
      <point x="550" y="164" type="line"/>
      <point x="514" y="122"/>
      <point x="468" y="110"/>
      <point x="402" y="110" type="curve" smooth="yes"/>
      <point x="343" y="110"/>
      <point x="292" y="111"/>
      <point x="250" y="121" type="curve"/>
      <point x="228" y="100"/>
      <point x="239" y="62"/>
      <point x="264" y="37" type="curve" smooth="yes"/>
      <point x="314" y="-14"/>
      <point x="347" y="-20"/>
      <point x="397" y="-20" type="curve" smooth="yes"/>
      <point x="456" y="-20"/>
      <point x="513" y="-15"/>
      <point x="546" y="18" type="curve" smooth="yes"/>
      <point x="560" y="33"/>
      <point x="569" y="53"/>
      <point x="569" y="82" type="curve"/>
    </contour>
  </outline>
</glyph>
<glyph name="m" format="1">
  <advance width="600"/>
  <unicode hex="006D"/>
  <outline>
    <contour>
      <point x="176" y="-10" type="line"/>
      <point x="176" y="149"/>
      <point x="176" y="307"/>
      <point x="176" y="466" type="curve" smooth="yes"/>
      <point x="176" y="485"/>
      <point x="167" y="499"/>
      <point x="149" y="517" type="curve" smooth="yes"/>
      <point x="129" y="537"/>
      <point x="97" y="550"/>
      <point x="72" y="550" type="curve" smooth="yes"/>
      <point x="50" y="550" type="line"/>
      <point x="50" y="433"/>
      <point x="50" y="314"/>
      <point x="50" y="197" type="curve" smooth="yes"/>
      <point x="50" y="145"/>
      <point x="50" y="91"/>
      <point x="50" y="39" type="curve" smooth="yes"/>
      <point x="50" y="31"/>
      <point x="52" y="28"/>
      <point x="57" y="23" type="curve" smooth="yes"/>
      <point x="80" y="0"/>
      <point x="104" y="-10"/>
      <point x="146" y="-10" type="curve" smooth="yes"/>
    </contour>
    <contour>
      <point x="275" y="552" type="curve" smooth="yes"/>
      <point x="238" y="552"/>
      <point x="206" y="523"/>
      <point x="176" y="453" type="curve" smooth="yes"/>
      <point x="161" y="416"/>
      <point x="158" y="392"/>
      <point x="163" y="372" type="curve"/>
      <point x="197" y="407"/>
      <point x="224" y="418"/>
      <point x="254" y="418" type="curve" smooth="yes"/>
      <point x="274" y="418"/>
      <point x="286" y="409"/>
      <point x="299" y="394" type="curve"/>
      <point x="320" y="410"/>
      <point x="336" y="447"/>
      <point x="337" y="478" type="curve" smooth="yes"/>
      <point x="337" y="523"/>
      <point x="301" y="552"/>
    </contour>
    <contour>
      <point x="337" y="0" type="line"/>
      <point x="337" y="169"/>
      <point x="337" y="309"/>
      <point x="337" y="478" type="curve" smooth="yes"/>
      <point x="337" y="485"/>
      <point x="335" y="489"/>
      <point x="330" y="494" type="curve" smooth="yes"/>
      <point x="320" y="504"/>
      <point x="307" y="519"/>
      <point x="285" y="519" type="curve" smooth="yes"/>
      <point x="263" y="519" type="line"/>
      <point x="263" y="402"/>
      <point x="263" y="313"/>
      <point x="263" y="197" type="curve" smooth="yes"/>
      <point x="263" y="145"/>
      <point x="263" y="92"/>
      <point x="263" y="41" type="curve" smooth="yes"/>
      <point x="263" y="33"/>
      <point x="265" y="30"/>
      <point x="270" y="25" type="curve" smooth="yes"/>
      <point x="285" y="10"/>
      <point x="293" y="0"/>
      <point x="315" y="0" type="curve" smooth="yes"/>
    </contour>
    <contour>
      <point x="474" y="552" type="curve" smooth="yes"/>
      <point x="422" y="552"/>
      <point x="370" y="513"/>
      <point x="337" y="452" type="curve" smooth="yes"/>
      <point x="321" y="422"/>
      <point x="311" y="382"/>
      <point x="318" y="371" type="curve"/>
      <point x="356" y="408"/>
      <point x="386" y="418"/>
      <point x="423" y="418" type="curve" smooth="yes"/>
      <point x="454" y="418"/>
      <point x="480" y="399"/>
      <point x="503" y="371" type="curve"/>
      <point x="531" y="395"/>
      <point x="550" y="441"/>
      <point x="550" y="478" type="curve" smooth="yes"/>
      <point x="550" y="504"/>
      <point x="508" y="552"/>
    </contour>
    <contour>
      <point x="550" y="-10" type="line"/>
      <point x="550" y="163"/>
      <point x="550" y="305"/>
      <point x="550" y="478" type="curve" smooth="yes"/>
      <point x="550" y="485"/>
      <point x="548" y="489"/>
      <point x="543" y="494" type="curve" smooth="yes"/>
      <point x="529" y="508"/>
      <point x="492" y="519"/>
      <point x="446" y="519" type="curve" smooth="yes"/>
      <point x="424" y="519" type="line"/>
      <point x="424" y="402"/>
      <point x="424" y="313"/>
      <point x="424" y="197" type="curve" smooth="yes"/>
      <point x="424" y="145"/>
      <point x="424" y="91"/>
      <point x="424" y="39" type="curve" smooth="yes"/>
      <point x="424" y="31"/>
      <point x="426" y="28"/>
      <point x="431" y="23" type="curve" smooth="yes"/>
      <point x="455" y="-1"/>
      <point x="482" y="-10"/>
      <point x="528" y="-10" type="curve" smooth="yes"/>
    </contour>
  </outline>
</glyph>
<glyph name="n" format="1">
  <advance width="600"/>
  <unicode hex="006E"/>
  <outline>
    <contour>
      <point x="210" y="-10" type="line"/>
      <point x="210" y="163"/>
      <point x="210" y="336"/>
      <point x="210" y="509" type="curve" smooth="yes"/>
      <point x="210" y="517"/>
      <point x="208" y="520"/>
      <point x="203" y="525" type="curve" smooth="yes"/>
      <point x="190" y="538"/>
      <point x="136" y="550"/>
      <point x="94" y="550" type="curve" smooth="yes"/>
      <point x="72" y="550" type="line"/>
      <point x="72" y="433"/>
      <point x="72" y="314"/>
      <point x="72" y="197" type="curve" smooth="yes"/>
      <point x="72" y="145"/>
      <point x="72" y="91"/>
      <point x="72" y="39" type="curve" smooth="yes"/>
      <point x="72" y="31"/>
      <point x="74" y="28"/>
      <point x="79" y="23" type="curve" smooth="yes"/>
      <point x="102" y="0"/>
      <point x="146" y="-10"/>
      <point x="188" y="-10" type="curve" smooth="yes"/>
    </contour>
    <contour>
      <point x="391" y="552" type="curve" smooth="yes"/>
      <point x="332" y="552"/>
      <point x="242" y="481"/>
      <point x="194" y="424" type="curve" smooth="yes"/>
      <point x="167" y="392"/>
      <point x="162" y="377"/>
      <point x="163" y="320" type="curve"/>
      <point x="251" y="393"/>
      <point x="310" y="414"/>
      <point x="383" y="414" type="curve" smooth="yes"/>
      <point x="425" y="414"/>
      <point x="457" y="399"/>
      <point x="484" y="365" type="curve"/>
      <point x="513" y="367"/>
      <point x="528" y="393"/>
      <point x="528" y="413" type="curve" smooth="yes"/>
      <point x="528" y="467"/>
      <point x="455" y="552"/>
    </contour>
    <contour>
      <point x="528" y="-10" type="line"/>
      <point x="528" y="138"/>
      <point x="528" y="265"/>
      <point x="528" y="413" type="curve" smooth="yes"/>
      <point x="528" y="420"/>
      <point x="526" y="424"/>
      <point x="521" y="429" type="curve" smooth="yes"/>
      <point x="498" y="451"/>
      <point x="454" y="462"/>
      <point x="412" y="462" type="curve" smooth="yes"/>
      <point x="390" y="462" type="line"/>
      <point x="390" y="368"/>
      <point x="390" y="292"/>
      <point x="390" y="197" type="curve" smooth="yes"/>
      <point x="390" y="145"/>
      <point x="390" y="91"/>
      <point x="390" y="39" type="curve" smooth="yes"/>
      <point x="390" y="31"/>
      <point x="392" y="28"/>
      <point x="397" y="23" type="curve" smooth="yes"/>
      <point x="420" y="0"/>
      <point x="464" y="-10"/>
      <point x="506" y="-10" type="curve" smooth="yes"/>
    </contour>
  </outline>
</glyph>
<glyph name="o" format="1">
  <advance width="600"/>
  <unicode hex="006F"/>
  <outline>
    <contour>
      <point x="292" y="560" type="curve" smooth="yes"/>
      <point x="152" y="560"/>
      <point x="53" y="451"/>
      <point x="53" y="293" type="curve" smooth="yes"/>
      <point x="53" y="251" type="line" smooth="yes"/>
      <point x="53" y="87"/>
      <point x="161" y="-20"/>
      <point x="286" y="-20" type="curve" smooth="yes"/>
      <point x="308" y="-20" type="line" smooth="yes"/>
      <point x="342" y="-20"/>
      <point x="364" y="14"/>
      <point x="364" y="61" type="curve"/>
      <point x="234" y="65"/>
      <point x="183" y="125"/>
      <point x="183" y="224" type="curve" smooth="yes"/>
      <point x="183" y="269" type="line" smooth="yes"/>
      <point x="183" y="357"/>
      <point x="230" y="431"/>
      <point x="321" y="431" type="curve" smooth="yes"/>
      <point x="374" y="431"/>
      <point x="392" y="425"/>
      <point x="421" y="410" type="curve"/>
      <point x="434" y="422"/>
      <point x="436" y="427"/>
      <point x="436" y="451" type="curve"/>
      <point x="436" y="508"/>
      <point x="360" y="560"/>
    </contour>
    <contour>
      <point x="308" y="-20" type="curve" smooth="yes"/>
      <point x="448" y="-20"/>
      <point x="547" y="89"/>
      <point x="547" y="247" type="curve" smooth="yes"/>
      <point x="547" y="289" type="line" smooth="yes"/>
      <point x="547" y="453"/>
      <point x="439" y="560"/>
      <point x="314" y="560" type="curve" smooth="yes"/>
      <point x="292" y="560" type="line" smooth="yes"/>
      <point x="258" y="560"/>
      <point x="236" y="526"/>
      <point x="236" y="479" type="curve"/>
      <point x="366" y="475"/>
      <point x="417" y="415"/>
      <point x="417" y="316" type="curve" smooth="yes"/>
      <point x="417" y="271" type="line" smooth="yes"/>
      <point x="417" y="183"/>
      <point x="370" y="109"/>
      <point x="279" y="109" type="curve" smooth="yes"/>
      <point x="226" y="109"/>
      <point x="208" y="115"/>
      <point x="179" y="130" type="curve"/>
      <point x="166" y="118"/>
      <point x="164" y="113"/>
      <point x="164" y="89" type="curve"/>
      <point x="164" y="32"/>
      <point x="239" y="-20"/>
    </contour>
  </outline>
</glyph>
<glyph name="p" format="1">
  <advance width="600"/>
  <unicode hex="0070"/>
  <outline>
    <contour>
      <point x="210" y="-230" type="line"/>
      <point x="210" y="8"/>
      <point x="210" y="270"/>
      <point x="210" y="507" type="curve" smooth="yes"/>
      <point x="210" y="515"/>
      <point x="208" y="518"/>
      <point x="203" y="523" type="curve" smooth="yes"/>
      <point x="190" y="536"/>
      <point x="136" y="548"/>
      <point x="94" y="548" type="curve" smooth="yes"/>
      <point x="72" y="548" type="line"/>
      <point x="72" y="432"/>
      <point x="72" y="313"/>
      <point x="72" y="197" type="curve" smooth="yes"/>
      <point x="72" y="80"/>
      <point x="72" y="-64"/>
      <point x="72" y="-181" type="curve" smooth="yes"/>
      <point x="72" y="-189"/>
      <point x="74" y="-192"/>
      <point x="79" y="-197" type="curve" smooth="yes"/>
      <point x="102" y="-220"/>
      <point x="146" y="-230"/>
      <point x="188" y="-230" type="curve" smooth="yes"/>
    </contour>
    <contour>
      <point x="397" y="552" type="curve" smooth="yes"/>
      <point x="333" y="552"/>
      <point x="248" y="490"/>
      <point x="194" y="424" type="curve" smooth="yes"/>
      <point x="168" y="392"/>
      <point x="162" y="377"/>
      <point x="163" y="320" type="curve"/>
      <point x="252" y="395"/>
      <point x="314" y="414"/>
      <point x="389" y="414" type="curve" smooth="yes"/>
      <point x="441" y="414"/>
      <point x="471" y="378"/>
      <point x="503" y="323" type="curve"/>
      <point x="536" y="324"/>
      <point x="555" y="349"/>
      <point x="555" y="369" type="curve" smooth="yes"/>
      <point x="555" y="462"/>
      <point x="469" y="552"/>
    </contour>
    <contour>
      <point x="340" y="-20" type="curve" smooth="yes"/>
      <point x="479" y="-20"/>
      <point x="555" y="138"/>
      <point x="555" y="329" type="curve" smooth="yes"/>
      <point x="555" y="369" type="line" smooth="yes"/>
      <point x="555" y="414"/>
      <point x="516" y="480"/>
      <point x="461" y="480" type="curve"/>
      <point x="420" y="480"/>
      <point x="389" y="469"/>
      <point x="388" y="440" type="curve"/>
      <point x="404" y="420"/>
      <point x="413" y="398"/>
      <point x="413" y="351" type="curve" smooth="yes"/>
      <point x="413" y="329" type="line" smooth="yes"/>
      <point x="413" y="194"/>
      <point x="356" y="106"/>
      <point x="280" y="106" type="curve" smooth="yes"/>
      <point x="246" y="106"/>
      <point x="221" y="108"/>
      <point x="195" y="114" type="curve"/>
      <point x="191" y="110"/>
      <point x="189" y="107"/>
      <point x="189" y="99" type="curve"/>
      <point x="189" y="60"/>
      <point x="263" y="-20"/>
    </contour>
  </outline>
</glyph>
<glyph name="q" format="1">
  <advance width="600"/>
  <unicode hex="0071"/>
  <outline>
    <contour>
      <point x="528" y="-230" type="line"/>
      <point x="528" y="9"/>
      <point x="528" y="271"/>
      <point x="528" y="509" type="curve" smooth="yes"/>
      <point x="528" y="517"/>
      <point x="526" y="520"/>
      <point x="521" y="525" type="curve" smooth="yes"/>
      <point x="508" y="538"/>
      <point x="454" y="550"/>
      <point x="412" y="550" type="curve" smooth="yes"/>
      <point x="390" y="550" type="line"/>
      <point x="390" y="442"/>
      <point x="390" y="331"/>
      <point x="390" y="223" type="curve" smooth="yes"/>
      <point x="390" y="93"/>
      <point x="390" y="-51"/>
      <point x="390" y="-181" type="curve" smooth="yes"/>
      <point x="390" y="-189"/>
      <point x="392" y="-192"/>
      <point x="397" y="-197" type="curve" smooth="yes"/>
      <point x="420" y="-220"/>
      <point x="464" y="-230"/>
      <point x="506" y="-230" type="curve" smooth="yes"/>
    </contour>
    <contour>
      <point x="260" y="560" type="curve" smooth="yes"/>
      <point x="151" y="560"/>
      <point x="47" y="456"/>
      <point x="47" y="233" type="curve" smooth="yes"/>
      <point x="47" y="187" type="line" smooth="yes"/>
      <point x="47" y="139"/>
      <point x="89" y="69"/>
      <point x="163" y="69" type="curve"/>
      <point x="189" y="69"/>
      <point x="209" y="78"/>
      <point x="209" y="102" type="curve"/>
      <point x="194" y="122"/>
      <point x="189" y="156"/>
      <point x="189" y="221" type="curve" smooth="yes"/>
      <point x="189" y="235" type="line" smooth="yes"/>
      <point x="189" y="366"/>
      <point x="224" y="434"/>
      <point x="300" y="434" type="curve" smooth="yes"/>
      <point x="346" y="434"/>
      <point x="369" y="428"/>
      <point x="405" y="412" type="curve"/>
      <point x="415" y="416"/>
      <point x="414" y="442"/>
      <point x="405" y="457" type="curve"/>
      <point x="380" y="504"/>
      <point x="327" y="560"/>
    </contour>
    <contour>
      <point x="203" y="-12" type="curve" smooth="yes"/>
      <point x="263" y="-12"/>
      <point x="358" y="57"/>
      <point x="406" y="114" type="curve" smooth="yes"/>
      <point x="433" y="146"/>
      <point x="438" y="161"/>
      <point x="437" y="218" type="curve"/>
      <point x="348" y="144"/>
      <point x="286" y="126"/>
      <point x="211" y="126" type="curve" smooth="yes"/>
      <point x="155" y="126"/>
      <point x="135" y="174"/>
      <point x="94" y="238" type="curve"/>
      <point x="62" y="237"/>
      <point x="47" y="209"/>
      <point x="47" y="187" type="curve" smooth="yes"/>
      <point x="47" y="83"/>
      <point x="121" y="-12"/>
    </contour>
  </outline>
</glyph>
<glyph name="r" format="1">
  <advance width="600"/>
  <unicode hex="0072"/>
  <outline>
    <contour>
      <point x="400" y="560" type="curve" smooth="yes"/>
      <point x="351" y="560"/>
      <point x="279" y="487"/>
      <point x="234" y="425" type="curve" smooth="yes"/>
      <point x="209" y="391"/>
      <point x="202" y="377"/>
      <point x="203" y="320" type="curve"/>
      <point x="284" y="388"/>
      <point x="329" y="414"/>
      <point x="392" y="414" type="curve" smooth="yes"/>
      <point x="434" y="414"/>
      <point x="466" y="399"/>
      <point x="493" y="365" type="curve"/>
      <point x="522" y="367"/>
      <point x="537" y="393"/>
      <point x="537" y="413" type="curve" smooth="yes"/>
      <point x="537" y="470"/>
      <point x="464" y="560"/>
    </contour>
    <contour>
      <point x="537" y="228" type="line"/>
      <point x="537" y="292"/>
      <point x="537" y="348"/>
      <point x="537" y="413" type="curve" smooth="yes"/>
      <point x="537" y="420"/>
      <point x="535" y="424"/>
      <point x="530" y="429" type="curve" smooth="yes"/>
      <point x="507" y="451"/>
      <point x="463" y="462"/>
      <point x="421" y="462" type="curve" smooth="yes"/>
      <point x="399" y="462" type="line"/>
      <point x="399" y="398"/>
      <point x="399" y="340"/>
      <point x="399" y="277" type="curve" smooth="yes"/>
      <point x="399" y="269"/>
      <point x="401" y="266"/>
      <point x="406" y="261" type="curve" smooth="yes"/>
      <point x="429" y="238"/>
      <point x="473" y="228"/>
      <point x="515" y="228" type="curve" smooth="yes"/>
    </contour>
    <contour>
      <point x="30" y="540" type="curve"/>
      <point x="30" y="518" type="line" smooth="yes"/>
      <point x="30" y="461"/>
      <point x="36" y="432"/>
      <point x="51" y="417" type="curve" smooth="yes"/>
      <point x="56" y="412"/>
      <point x="59" y="410"/>
      <point x="67" y="410" type="curve"/>
      <point x="104" y="410"/>
      <point x="145" y="410"/>
      <point x="181" y="410" type="curve"/>
      <point x="181" y="432" type="line" smooth="yes"/>
      <point x="181" y="455"/>
      <point x="161" y="504"/>
      <point x="133" y="533" type="curve" smooth="yes"/>
      <point x="127" y="538"/>
      <point x="124" y="540"/>
      <point x="117" y="540" type="curve" smooth="yes"/>
      <point x="97" y="540"/>
      <point x="49" y="540"/>
    </contour>
    <contour>
      <point x="250" y="-10" type="line"/>
      <point x="250" y="123"/>
      <point x="250" y="256"/>
      <point x="250" y="389" type="curve"/>
      <point x="250" y="443"/>
      <point x="195" y="540"/>
      <point x="142" y="540" type="curve" smooth="yes"/>
      <point x="112" y="540" type="line"/>
      <point x="112" y="466"/>
      <point x="112" y="307"/>
      <point x="112" y="236" type="curve" smooth="yes"/>
      <point x="112" y="171"/>
      <point x="112" y="104"/>
      <point x="112" y="39" type="curve"/>
      <point x="112" y="31"/>
      <point x="114" y="28"/>
      <point x="119" y="23" type="curve" smooth="yes"/>
      <point x="142" y="0"/>
      <point x="186" y="-10"/>
      <point x="228" y="-10" type="curve" smooth="yes"/>
    </contour>
  </outline>
</glyph>
<glyph name="s" format="1">
  <advance width="600"/>
  <unicode hex="0073"/>
  <outline>
    <contour>
      <point x="375" y="560" type="curve" smooth="yes"/>
      <point x="231" y="560"/>
      <point x="80" y="477"/>
      <point x="80" y="376" type="curve" smooth="yes"/>
      <point x="80" y="350" type="line" smooth="yes"/>
      <point x="80" y="316"/>
      <point x="141" y="297"/>
      <point x="211" y="297" type="curve"/>
      <point x="210" y="313"/>
      <point x="210" y="344"/>
      <point x="210" y="363" type="curve" smooth="yes"/>
      <point x="210" y="400"/>
      <point x="288" y="430"/>
      <point x="368" y="430" type="curve" smooth="yes"/>
      <point x="427" y="430"/>
      <point x="468" y="418"/>
      <point x="498" y="402" type="curve"/>
      <point x="520" y="402" type="line"/>
      <point x="520" y="509" type="line"/>
      <point x="520" y="536"/>
      <point x="463" y="560"/>
    </contour>
    <contour>
      <point x="395" y="305" type="curve" smooth="yes"/>
      <point x="301" y="325" type="line" smooth="yes"/>
      <point x="226" y="340"/>
      <point x="210" y="345"/>
      <point x="210" y="363" type="curve" smooth="yes"/>
      <point x="210" y="379"/>
      <point x="213" y="406"/>
      <point x="233" y="427" type="curve"/>
      <point x="138" y="424"/>
      <point x="80" y="394"/>
      <point x="80" y="350" type="curve"/>
      <point x="80" y="296"/>
      <point x="128" y="255"/>
      <point x="239" y="230" type="curve" smooth="yes"/>
      <point x="351" y="205" type="line" smooth="yes"/>
      <point x="435" y="186"/>
      <point x="457" y="161"/>
      <point x="474" y="108" type="curve"/>
      <point x="516" y="108"/>
      <point x="545" y="138"/>
      <point x="545" y="169" type="curve"/>
      <point x="545" y="244"/>
      <point x="501" y="283"/>
    </contour>
    <contour>
      <point x="309" y="-20" type="line" smooth="yes"/>
      <point x="460" y="-20"/>
      <point x="545" y="35"/>
      <point x="545" y="125" type="curve" smooth="yes"/>
      <point x="545" y="169" type="line"/>
      <point x="545" y="194"/>
      <point x="514" y="198"/>
      <point x="471" y="180" type="curve"/>
      <point x="457" y="133"/>
      <point x="410" y="110"/>
      <point x="300" y="110" type="curve" smooth="yes"/>
      <point x="186" y="110"/>
      <point x="135" y="119"/>
      <point x="78" y="160" type="curve"/>
      <point x="55" y="160" type="line"/>
      <point x="55" y="125"/>
      <point x="55" y="88"/>
      <point x="55" y="52" type="curve"/>
      <point x="55" y="14"/>
      <point x="129" y="-20"/>
      <point x="274" y="-20" type="curve" smooth="yes"/>
    </contour>
  </outline>
</glyph>
<glyph name="t" format="1">
  <advance width="600"/>
  <unicode hex="0074"/>
  <outline>
    <contour>
      <point x="545" y="180" type="line"/>
      <point x="526" y="180" type="line"/>
      <point x="486" y="132"/>
      <point x="433" y="110"/>
      <point x="358" y="110" type="curve" smooth="yes"/>
      <point x="304" y="110"/>
      <point x="257" y="112"/>
      <point x="219" y="121" type="curve"/>
      <point x="195" y="100"/>
      <point x="207" y="63"/>
      <point x="234" y="36" type="curve" smooth="yes"/>
      <point x="277" y="-7"/>
      <point x="297" y="-20"/>
      <point x="335" y="-20" type="curve" smooth="yes"/>
      <point x="346" y="-20"/>
      <point x="359" y="-20"/>
      <point x="370" y="-20" type="curve" smooth="yes"/>
      <point x="432" y="-20"/>
      <point x="489" y="1"/>
      <point x="521" y="33" type="curve" smooth="yes"/>
      <point x="536" y="48"/>
      <point x="545" y="68"/>
      <point x="545" y="98" type="curve"/>
    </contour>
    <contour>
      <point x="30" y="540" type="curve"/>
      <point x="30" y="486" type="line" smooth="yes"/>
      <point x="30" y="460"/>
      <point x="39" y="433"/>
      <point x="55" y="417" type="curve" smooth="yes"/>
      <point x="60" y="412"/>
      <point x="63" y="410"/>
      <point x="71" y="410" type="curve"/>
      <point x="130" y="410"/>
      <point x="199" y="410"/>
      <point x="258" y="410" type="curve"/>
      <point x="340" y="410"/>
      <point x="463" y="410"/>
      <point x="545" y="410" type="curve"/>
      <point x="545" y="432" type="line" smooth="yes"/>
      <point x="545" y="474"/>
      <point x="535" y="510"/>
      <point x="512" y="533" type="curve" smooth="yes"/>
      <point x="507" y="538"/>
      <point x="504" y="540"/>
      <point x="496" y="540" type="curve" smooth="yes"/>
      <point x="355" y="540"/>
      <point x="171" y="540"/>
    </contour>
    <contour>
      <point x="303" y="667" type="curve" smooth="yes"/>
      <point x="280" y="690"/>
      <point x="244" y="700"/>
      <point x="202" y="700" type="curve" smooth="yes"/>
      <point x="180" y="700" type="line"/>
      <point x="180" y="149" type="line" smooth="yes"/>
      <point x="180" y="101"/>
      <point x="191" y="79"/>
      <point x="234" y="36" type="curve"/>
      <point x="264" y="6"/>
      <point x="302" y="3"/>
      <point x="315" y="21" type="curve"/>
      <point x="311" y="63"/>
      <point x="310" y="109"/>
      <point x="310" y="156" type="curve" smooth="yes"/>
      <point x="310" y="651" type="line" smooth="yes"/>
      <point x="310" y="659"/>
      <point x="308" y="662"/>
    </contour>
  </outline>
</glyph>
<glyph name="u" format="1">
  <advance width="600"/>
  <unicode hex="0075"/>
  <outline>
    <contour>
      <point x="390" y="550" type="line"/>
      <point x="390" y="377"/>
      <point x="390" y="204"/>
      <point x="390" y="31" type="curve" smooth="yes"/>
      <point x="390" y="23"/>
      <point x="392" y="20"/>
      <point x="397" y="15" type="curve" smooth="yes"/>
      <point x="410" y="2"/>
      <point x="464" y="-10"/>
      <point x="506" y="-10" type="curve" smooth="yes"/>
      <point x="528" y="-10" type="line"/>
      <point x="528" y="107"/>
      <point x="528" y="226"/>
      <point x="528" y="343" type="curve" smooth="yes"/>
      <point x="528" y="395"/>
      <point x="528" y="449"/>
      <point x="528" y="501" type="curve" smooth="yes"/>
      <point x="528" y="509"/>
      <point x="526" y="512"/>
      <point x="521" y="517" type="curve" smooth="yes"/>
      <point x="498" y="540"/>
      <point x="454" y="550"/>
      <point x="412" y="550" type="curve" smooth="yes"/>
    </contour>
    <contour>
      <point x="209" y="-12" type="curve" smooth="yes"/>
      <point x="268" y="-12"/>
      <point x="358" y="59"/>
      <point x="406" y="116" type="curve" smooth="yes"/>
      <point x="433" y="148"/>
      <point x="438" y="163"/>
      <point x="437" y="220" type="curve"/>
      <point x="349" y="147"/>
      <point x="290" y="126"/>
      <point x="217" y="126" type="curve" smooth="yes"/>
      <point x="175" y="126"/>
      <point x="143" y="141"/>
      <point x="116" y="175" type="curve"/>
      <point x="87" y="173"/>
      <point x="72" y="147"/>
      <point x="72" y="127" type="curve" smooth="yes"/>
      <point x="72" y="73"/>
      <point x="145" y="-12"/>
    </contour>
    <contour>
      <point x="72" y="550" type="line"/>
      <point x="72" y="402"/>
      <point x="72" y="275"/>
      <point x="72" y="127" type="curve" smooth="yes"/>
      <point x="72" y="120"/>
      <point x="74" y="116"/>
      <point x="79" y="111" type="curve" smooth="yes"/>
      <point x="102" y="89"/>
      <point x="146" y="78"/>
      <point x="188" y="78" type="curve" smooth="yes"/>
      <point x="210" y="78" type="line"/>
      <point x="210" y="172"/>
      <point x="210" y="248"/>
      <point x="210" y="343" type="curve" smooth="yes"/>
      <point x="210" y="395"/>
      <point x="210" y="449"/>
      <point x="210" y="501" type="curve" smooth="yes"/>
      <point x="210" y="509"/>
      <point x="208" y="512"/>
      <point x="203" y="517" type="curve" smooth="yes"/>
      <point x="180" y="540"/>
      <point x="136" y="550"/>
      <point x="94" y="550" type="curve" smooth="yes"/>
    </contour>
  </outline>
</glyph>
<glyph name="v" format="1">
  <advance width="600"/>
  <unicode hex="0076"/>
  <outline>
    <contour>
      <point x="431" y="550" type="curve" smooth="yes"/>
      <point x="410" y="550" type="line"/>
      <point x="385" y="285"/>
      <point x="354" y="176"/>
      <point x="255" y="94" type="curve" smooth="yes"/>
      <point x="232" y="75"/>
      <point x="254" y="-10"/>
      <point x="307" y="-10" type="curve"/>
      <point x="345" y="-10" type="line"/>
      <point x="452" y="78"/>
      <point x="522" y="259"/>
      <point x="543" y="485" type="curve" smooth="yes"/>
      <point x="546" y="522"/>
      <point x="488" y="550"/>
    </contour>
    <contour>
      <point x="74" y="550" type="curve" smooth="yes"/>
      <point x="53" y="550" type="line"/>
      <point x="76" y="287"/>
      <point x="118" y="128"/>
      <point x="213" y="32" type="curve" smooth="yes"/>
      <point x="250" y="-4"/>
      <point x="280" y="-10"/>
      <point x="307" y="-10" type="curve"/>
      <point x="345" y="-10"/>
      <point x="368" y="3"/>
      <point x="368" y="61" type="curve"/>
      <point x="259" y="132"/>
      <point x="221" y="244"/>
      <point x="195" y="506" type="curve" smooth="yes"/>
      <point x="192" y="531"/>
      <point x="131" y="550"/>
    </contour>
  </outline>
</glyph>
<glyph name="w" format="1">
  <advance width="600"/>
  <unicode hex="0077"/>
  <outline>
    <contour>
      <point x="549" y="516" type="curve" smooth="yes"/>
      <point x="528" y="537"/>
      <point x="496" y="550"/>
      <point x="467" y="550" type="curve" smooth="yes"/>
      <point x="445" y="550" type="line"/>
      <point x="445" y="258"/>
      <point x="435" y="172"/>
      <point x="378" y="71" type="curve"/>
      <point x="380" y="23"/>
      <point x="394" y="-10"/>
      <point x="428" y="-10" type="curve" smooth="yes"/>
      <point x="458" y="-10" type="line"/>
      <point x="528" y="118"/>
      <point x="554" y="264"/>
      <point x="554" y="495" type="curve" smooth="yes"/>
      <point x="554" y="507"/>
      <point x="553" y="512"/>
    </contour>
    <contour>
      <point x="160" y="523" type="curve" smooth="yes"/>
      <point x="145" y="538"/>
      <point x="103" y="550"/>
      <point x="64" y="550" type="curve" smooth="yes"/>
      <point x="43" y="550" type="line"/>
      <point x="43" y="231"/>
      <point x="69" y="91"/>
      <point x="149" y="11" type="curve" smooth="yes"/>
      <point x="162" y="-3"/>
      <point x="180" y="-10"/>
      <point x="198" y="-10" type="curve" smooth="yes"/>
      <point x="207" y="-10"/>
      <point x="233" y="33"/>
      <point x="233" y="73" type="curve"/>
      <point x="179" y="113"/>
      <point x="169" y="200"/>
      <point x="169" y="506" type="curve" smooth="yes"/>
      <point x="169" y="514"/>
      <point x="167" y="515"/>
    </contour>
    <contour>
      <point x="279" y="420" type="curve" smooth="yes"/>
      <point x="268" y="420" type="line"/>
      <point x="268" y="213"/>
      <point x="221" y="153"/>
      <point x="162" y="47" type="curve"/>
      <point x="163" y="16"/>
      <point x="173" y="-10"/>
      <point x="198" y="-10" type="curve" smooth="yes"/>
      <point x="219" y="-10" type="line"/>
      <point x="283" y="101"/>
      <point x="326" y="215"/>
      <point x="326" y="374" type="curve" smooth="yes"/>
      <point x="326" y="405"/>
      <point x="301" y="420"/>
    </contour>
    <contour>
      <point x="339" y="398" type="curve" smooth="yes"/>
      <point x="328" y="408"/>
      <point x="303" y="420"/>
      <point x="279" y="420" type="curve" smooth="yes"/>
      <point x="274" y="420" type="line"/>
      <point x="274" y="194"/>
      <point x="312" y="91"/>
      <point x="382" y="6" type="curve" smooth="yes"/>
      <point x="391" y="-5"/>
      <point x="403" y="-10"/>
      <point x="415" y="-10" type="curve" smooth="yes"/>
      <point x="439" y="-10" type="line" smooth="yes"/>
      <point x="452" y="-10"/>
      <point x="459" y="20"/>
      <point x="459" y="44" type="curve"/>
      <point x="398" y="90"/>
      <point x="345" y="175"/>
      <point x="345" y="384" type="curve" smooth="yes"/>
      <point x="345" y="390"/>
      <point x="344" y="393"/>
    </contour>
  </outline>
</glyph>
<glyph name="x" format="1">
  <advance width="600"/>
  <unicode hex="0078"/>
  <outline>
    <contour>
      <point x="510" y="-10" type="curve" smooth="yes"/>
      <point x="550" y="-10"/>
      <point x="566" y="6"/>
      <point x="566" y="47" type="curve"/>
      <point x="566" y="128" type="line"/>
      <point x="488" y="147"/>
      <point x="436" y="177"/>
      <point x="365" y="248" type="curve" smooth="yes"/>
      <point x="302" y="311"/>
      <point x="251" y="384"/>
      <point x="195" y="505" type="curve" smooth="yes"/>
      <point x="192" y="514"/>
      <point x="189" y="518"/>
      <point x="184" y="523" type="curve" smooth="yes"/>
      <point x="166" y="541"/>
      <point x="126" y="550"/>
      <point x="66" y="550" type="curve" smooth="yes"/>
      <point x="43" y="550" type="line"/>
      <point x="83" y="400"/>
      <point x="165" y="264"/>
      <point x="281" y="145" type="curve" smooth="yes"/>
      <point x="381" y="45"/>
      <point x="463" y="-10"/>
    </contour>
    <contour>
      <point x="555" y="515" type="curve" smooth="yes"/>
      <point x="531" y="539"/>
      <point x="488" y="550"/>
      <point x="449" y="550" type="curve" smooth="yes"/>
      <point x="428" y="550" type="line"/>
      <point x="387" y="402"/>
      <point x="357" y="350"/>
      <point x="290" y="296" type="curve"/>
      <point x="252" y="262"/>
      <point x="286" y="211"/>
      <point x="347" y="211" type="curve"/>
      <point x="470" y="312"/>
      <point x="531" y="396"/>
      <point x="560" y="489" type="curve" smooth="yes"/>
      <point x="564" y="502"/>
      <point x="562" y="509"/>
    </contour>
    <contour>
      <point x="40" y="25" type="curve" smooth="yes"/>
      <point x="64" y="1"/>
      <point x="106" y="-10"/>
      <point x="145" y="-10" type="curve" smooth="yes"/>
      <point x="166" y="-10" type="line"/>
      <point x="190" y="82"/>
      <point x="227" y="146"/>
      <point x="292" y="197" type="curve"/>
      <point x="319" y="223"/>
      <point x="300" y="277"/>
      <point x="246" y="277" type="curve"/>
      <point x="111" y="186"/>
      <point x="50" y="109"/>
      <point x="36" y="51" type="curve" smooth="yes"/>
      <point x="32" y="38"/>
      <point x="34" y="31"/>
    </contour>
  </outline>
</glyph>
<glyph name="y" format="1">
  <advance width="600"/>
  <unicode hex="0079"/>
  <outline>
    <contour>
      <point x="176" y="523" type="curve" smooth="yes"/>
      <point x="158" y="541"/>
      <point x="106" y="550"/>
      <point x="64" y="550" type="curve" smooth="yes"/>
      <point x="43" y="550" type="line"/>
      <point x="55" y="405" type="line" smooth="yes"/>
      <point x="65" y="288"/>
      <point x="98" y="168"/>
      <point x="187" y="79" type="curve" smooth="yes"/>
      <point x="249" y="17"/>
      <point x="294" y="8"/>
      <point x="330" y="8" type="curve"/>
      <point x="356" y="8"/>
      <point x="374" y="30"/>
      <point x="374" y="113" type="curve"/>
      <point x="341" y="124"/>
      <point x="312" y="137"/>
      <point x="287" y="161" type="curve" smooth="yes"/>
      <point x="232" y="216"/>
      <point x="203" y="282"/>
      <point x="194" y="398" type="curve" smooth="yes"/>
      <point x="185" y="505" type="line" smooth="yes"/>
      <point x="184" y="514"/>
      <point x="182" y="517"/>
    </contour>
    <contour>
      <point x="547" y="507" type="curve" smooth="yes"/>
      <point x="522" y="532"/>
      <point x="483" y="550"/>
      <point x="441" y="550" type="curve" smooth="yes"/>
      <point x="420" y="550" type="line"/>
      <point x="409" y="435" type="line" smooth="yes"/>
      <point x="384" y="167"/>
      <point x="349" y="42"/>
      <point x="235" y="-73" type="curve" smooth="yes"/>
      <point x="210" y="-97"/>
      <point x="183" y="-121"/>
      <point x="118" y="-167" type="curve"/>
      <point x="118" y="-213"/>
      <point x="138" y="-250"/>
      <point x="176" y="-250" type="curve" smooth="yes"/>
      <point x="213" y="-250"/>
      <point x="258" y="-239"/>
      <point x="300" y="-198" type="curve" smooth="yes"/>
      <point x="437" y="-61"/>
      <point x="518" y="119"/>
      <point x="543" y="385" type="curve" smooth="yes"/>
      <point x="552" y="484" type="line" smooth="yes"/>
      <point x="553" y="494"/>
      <point x="552" y="502"/>
    </contour>
    <contour>
      <point x="66" y="-120" type="curve"/>
      <point x="66" y="-142" type="line" smooth="yes"/>
      <point x="66" y="-184"/>
      <point x="76" y="-220"/>
      <point x="99" y="-243" type="curve" smooth="yes"/>
      <point x="104" y="-248"/>
      <point x="107" y="-250"/>
      <point x="115" y="-250" type="curve"/>
      <point x="136" y="-250"/>
      <point x="155" y="-250"/>
      <point x="176" y="-250" type="curve" smooth="yes"/>
      <point x="232" y="-250"/>
      <point x="280" y="-180"/>
      <point x="282" y="-120" type="curve"/>
      <point x="228" y="-120"/>
      <point x="119" y="-120"/>
    </contour>
  </outline>
</glyph>
<glyph name="z" format="1">
  <advance width="600"/>
  <unicode hex="007A"/>
  <outline>
    <contour>
      <point x="56" y="540" type="curve"/>
      <point x="56" y="518" type="line" smooth="yes"/>
      <point x="56" y="476"/>
      <point x="66" y="440"/>
      <point x="89" y="417" type="curve" smooth="yes"/>
      <point x="94" y="412"/>
      <point x="97" y="410"/>
      <point x="105" y="410" type="curve"/>
      <point x="156" y="410"/>
      <point x="202" y="410"/>
      <point x="253" y="410" type="curve" smooth="yes"/>
      <point x="337" y="410"/>
      <point x="460" y="410"/>
      <point x="544" y="410" type="curve"/>
      <point x="544" y="455"/>
      <point x="524" y="504"/>
      <point x="495" y="533" type="curve" smooth="yes"/>
      <point x="490" y="538"/>
      <point x="487" y="540"/>
      <point x="479" y="540" type="curve" smooth="yes"/>
      <point x="348" y="540"/>
      <point x="187" y="540"/>
    </contour>
    <contour>
      <point x="540" y="423" type="curve" smooth="yes"/>
      <point x="508" y="455"/>
      <point x="489" y="477"/>
      <point x="439" y="477" type="curve"/>
      <point x="350" y="346"/>
      <point x="204" y="220"/>
      <point x="56" y="130" type="curve"/>
      <point x="56" y="92"/>
      <point x="80" y="76"/>
      <point x="101" y="76" type="curve" smooth="yes"/>
      <point x="133" y="76"/>
      <point x="148" y="80"/>
      <point x="177" y="93" type="curve" smooth="yes"/>
      <point x="348" y="175"/>
      <point x="544" y="364"/>
      <point x="544" y="410" type="curve" smooth="yes"/>
      <point x="544" y="416"/>
      <point x="543" y="420"/>
    </contour>
    <contour>
      <point x="544" y="0" type="curve"/>
      <point x="544" y="22" type="line" smooth="yes"/>
      <point x="544" y="45"/>
      <point x="524" y="94"/>
      <point x="495" y="123" type="curve" smooth="yes"/>
      <point x="490" y="128"/>
      <point x="487" y="130"/>
      <point x="479" y="130" type="curve" smooth="yes"/>
      <point x="348" y="130"/>
      <point x="187" y="130"/>
      <point x="56" y="130" type="curve"/>
      <point x="56" y="108" type="line" smooth="yes"/>
      <point x="56" y="66"/>
      <point x="66" y="30"/>
      <point x="89" y="7" type="curve" smooth="yes"/>
      <point x="94" y="2"/>
      <point x="97" y="0"/>
      <point x="105" y="0" type="curve"/>
      <point x="156" y="0"/>
      <point x="202" y="0"/>
      <point x="253" y="0" type="curve" smooth="yes"/>
      <point x="337" y="0"/>
      <point x="460" y="0"/>
    </contour>
  </outline>
</glyph>
<glyph name="i.ss01" format="1">
  <advance width="600"/>
  <outline>
    <contour>
      <point x="50" y="540" type="curve"/>
      <point x="50" y="518" type="line" smooth="yes"/>
      <point x="50" y="476"/>
      <point x="60" y="440"/>
      <point x="83" y="417" type="curve" smooth="yes"/>
      <point x="88" y="412"/>
      <point x="91" y="410"/>
      <point x="99" y="410" type="curve"/>
      <point x="143" y="410"/>
      <point x="179" y="410"/>
      <point x="223" y="410" type="curve"/>
      <point x="253" y="410"/>
      <point x="283" y="410"/>
      <point x="303" y="410" type="curve"/>
      <point x="303" y="432" type="line" smooth="yes"/>
      <point x="303" y="474"/>
      <point x="294" y="509"/>
      <point x="271" y="533" type="curve" smooth="yes"/>
      <point x="265" y="538"/>
      <point x="262" y="540"/>
      <point x="255" y="540" type="curve" smooth="yes"/>
      <point x="191" y="540"/>
      <point x="114" y="540"/>
    </contour>
    <contour>
      <point x="380" y="27" type="line"/>
      <point x="380" y="183"/>
      <point x="380" y="342"/>
      <point x="380" y="499" type="curve" smooth="yes"/>
      <point x="380" y="507"/>
      <point x="378" y="510"/>
      <point x="373" y="515" type="curve" smooth="yes"/>
      <point x="360" y="528"/>
      <point x="314" y="540"/>
      <point x="272" y="540" type="curve" smooth="yes"/>
      <point x="250" y="540" type="line"/>
      <point x="250" y="425"/>
      <point x="250" y="297"/>
      <point x="250" y="193" type="curve"/>
      <point x="250" y="154"/>
      <point x="250" y="115"/>
      <point x="250" y="75" type="curve" smooth="yes"/>
      <point x="250" y="68"/>
      <point x="252" y="65"/>
      <point x="257" y="59" type="curve" smooth="yes"/>
      <point x="280" y="37"/>
      <point x="316" y="27"/>
      <point x="358" y="27" type="curve" smooth="yes"/>
    </contour>
    <contour>
      <point x="50" y="130" type="curve"/>
      <point x="50" y="108" type="line" smooth="yes"/>
      <point x="50" y="66"/>
      <point x="60" y="30"/>
      <point x="83" y="7" type="curve" smooth="yes"/>
      <point x="88" y="2"/>
      <point x="91" y="0"/>
      <point x="99" y="0" type="curve"/>
      <point x="150" y="0"/>
      <point x="202" y="0"/>
      <point x="253" y="0" type="curve"/>
      <point x="342" y="0"/>
      <point x="481" y="0"/>
      <point x="570" y="0" type="curve"/>
      <point x="570" y="22" type="line" smooth="yes"/>
      <point x="570" y="45"/>
      <point x="550" y="94"/>
      <point x="521" y="123" type="curve" smooth="yes"/>
      <point x="516" y="128"/>
      <point x="513" y="130"/>
      <point x="505" y="130" type="curve" smooth="yes"/>
      <point x="369" y="130"/>
      <point x="187" y="130"/>
    </contour>
    <contour>
      <point x="398" y="621" type="line"/>
      <point x="398" y="652"/>
      <point x="398" y="696"/>
      <point x="398" y="727" type="curve" smooth="yes"/>
      <point x="398" y="735"/>
      <point x="396" y="738"/>
      <point x="390" y="744" type="curve" smooth="yes"/>
      <point x="370" y="764"/>
      <point x="344" y="770"/>
      <point x="310" y="770" type="curve"/>
      <point x="237" y="770" type="line"/>
      <point x="237" y="739"/>
      <point x="237" y="696"/>
      <point x="237" y="664" type="curve" smooth="yes"/>
      <point x="237" y="656"/>
      <point x="239" y="653"/>
      <point x="245" y="647" type="curve" smooth="yes"/>
      <point x="264" y="628"/>
      <point x="291" y="621"/>
      <point x="325" y="621" type="curve"/>
    </contour>
  </outline>
</glyph>
<glyph name="l.ss01" format="1">
  <advance width="600"/>
  <outline>
    <contour>
      <point x="50" y="750" type="curve"/>
      <point x="50" y="728" type="line" smooth="yes"/>
      <point x="50" y="686"/>
      <point x="60" y="650"/>
      <point x="83" y="627" type="curve" smooth="yes"/>
      <point x="88" y="622"/>
      <point x="91" y="620"/>
      <point x="99" y="620" type="curve"/>
      <point x="143" y="620"/>
      <point x="179" y="620"/>
      <point x="223" y="620" type="curve" smooth="yes"/>
      <point x="253" y="620"/>
      <point x="283" y="620"/>
      <point x="303" y="620" type="curve"/>
      <point x="303" y="642" type="line" smooth="yes"/>
      <point x="303" y="684"/>
      <point x="294" y="719"/>
      <point x="271" y="743" type="curve" smooth="yes"/>
      <point x="265" y="748"/>
      <point x="262" y="750"/>
      <point x="255" y="750" type="curve" smooth="yes"/>
      <point x="191" y="750"/>
      <point x="114" y="750"/>
    </contour>
    <contour>
      <point x="380" y="27" type="line"/>
      <point x="380" y="250"/>
      <point x="380" y="526"/>
      <point x="380" y="709" type="curve" smooth="yes"/>
      <point x="380" y="717"/>
      <point x="378" y="720"/>
      <point x="373" y="725" type="curve" smooth="yes"/>
      <point x="360" y="738"/>
      <point x="314" y="750"/>
      <point x="272" y="750" type="curve" smooth="yes"/>
      <point x="250" y="750" type="line"/>
      <point x="250" y="609"/>
      <point x="250" y="364"/>
      <point x="250" y="193" type="curve" smooth="yes"/>
      <point x="250" y="154"/>
      <point x="250" y="115"/>
      <point x="250" y="75" type="curve" smooth="yes"/>
      <point x="250" y="68"/>
      <point x="252" y="65"/>
      <point x="257" y="59" type="curve" smooth="yes"/>
      <point x="280" y="37"/>
      <point x="316" y="27"/>
      <point x="358" y="27" type="curve" smooth="yes"/>
    </contour>
    <contour>
      <point x="50" y="130" type="curve"/>
      <point x="50" y="108" type="line" smooth="yes"/>
      <point x="50" y="66"/>
      <point x="60" y="30"/>
      <point x="83" y="7" type="curve" smooth="yes"/>
      <point x="88" y="2"/>
      <point x="91" y="0"/>
      <point x="99" y="0" type="curve"/>
      <point x="150" y="0"/>
      <point x="202" y="0"/>
      <point x="253" y="0" type="curve" smooth="yes"/>
      <point x="342" y="0"/>
      <point x="481" y="0"/>
      <point x="570" y="0" type="curve"/>
      <point x="570" y="22" type="line" smooth="yes"/>
      <point x="570" y="53"/>
      <point x="550" y="94"/>
      <point x="521" y="123" type="curve" smooth="yes"/>
      <point x="516" y="128"/>
      <point x="513" y="130"/>
      <point x="505" y="130" type="curve" smooth="yes"/>
      <point x="369" y="130"/>
      <point x="187" y="130"/>
    </contour>
  </outline>
</glyph>
<glyph name="r.ss01" format="1">
  <advance width="600"/>
  <outline>
    <contour>
      <point x="50" y="540" type="curve"/>
      <point x="50" y="518" type="line" smooth="yes"/>
      <point x="50" y="476"/>
      <point x="60" y="440"/>
      <point x="83" y="417" type="curve" smooth="yes"/>
      <point x="88" y="412"/>
      <point x="91" y="410"/>
      <point x="99" y="410" type="curve"/>
      <point x="150" y="410"/>
      <point x="178" y="410"/>
      <point x="229" y="410" type="curve"/>
      <point x="229" y="432" type="line" smooth="yes"/>
      <point x="229" y="469"/>
      <point x="218" y="540"/>
      <point x="171" y="540" type="curve" smooth="yes"/>
      <point x="119" y="540"/>
      <point x="101" y="540"/>
    </contour>
    <contour>
      <point x="280" y="43" type="line"/>
      <point x="280" y="158"/>
      <point x="280" y="274"/>
      <point x="280" y="389" type="curve"/>
      <point x="280" y="443"/>
      <point x="225" y="540"/>
      <point x="172" y="540" type="curve" smooth="yes"/>
      <point x="150" y="540" type="line"/>
      <point x="150" y="466"/>
      <point x="150" y="307"/>
      <point x="150" y="236" type="curve" smooth="yes"/>
      <point x="150" y="188"/>
      <point x="150" y="139"/>
      <point x="150" y="91" type="curve"/>
      <point x="150" y="84"/>
      <point x="152" y="81"/>
      <point x="157" y="75" type="curve" smooth="yes"/>
      <point x="180" y="53"/>
      <point x="216" y="43"/>
      <point x="258" y="43" type="curve" smooth="yes"/>
    </contour>
    <contour>
      <point x="50" y="130" type="curve"/>
      <point x="50" y="108" type="line" smooth="yes"/>
      <point x="50" y="66"/>
      <point x="60" y="30"/>
      <point x="83" y="7" type="curve" smooth="yes"/>
      <point x="88" y="2"/>
      <point x="91" y="0"/>
      <point x="99" y="0" type="curve"/>
      <point x="150" y="0"/>
      <point x="202" y="0"/>
      <point x="253" y="0" type="curve"/>
      <point x="323" y="0"/>
      <point x="370" y="0"/>
      <point x="440" y="0" type="curve"/>
      <point x="440" y="22" type="line" smooth="yes"/>
      <point x="440" y="64"/>
      <point x="430" y="100"/>
      <point x="407" y="123" type="curve" smooth="yes"/>
      <point x="402" y="128"/>
      <point x="399" y="130"/>
      <point x="391" y="130" type="curve"/>
      <point x="269" y="130"/>
      <point x="172" y="130"/>
    </contour>
    <contour>
      <point x="456" y="560" type="curve" smooth="yes"/>
      <point x="388" y="560"/>
      <point x="298" y="487"/>
      <point x="260" y="424" type="curve" smooth="yes"/>
      <point x="239" y="389"/>
      <point x="235" y="365"/>
      <point x="236" y="321" type="curve"/>
      <point x="299" y="398"/>
      <point x="352" y="424"/>
      <point x="412" y="424" type="curve" smooth="yes"/>
      <point x="462" y="424"/>
      <point x="495" y="414"/>
      <point x="525" y="393" type="curve"/>
      <point x="539" y="400"/>
      <point x="545" y="414"/>
      <point x="545" y="431" type="curve" smooth="yes"/>
      <point x="545" y="477"/>
      <point x="500" y="560"/>
    </contour>
    <contour>
      <point x="545" y="280" type="line"/>
      <point x="545" y="327"/>
      <point x="545" y="384"/>
      <point x="545" y="431" type="curve" smooth="yes"/>
      <point x="545" y="469"/>
      <point x="489" y="492"/>
      <point x="437" y="492" type="curve" smooth="yes"/>
      <point x="415" y="492" type="line"/>
      <point x="415" y="474"/>
      <point x="415" y="455"/>
      <point x="415" y="437" type="curve" smooth="yes"/>
      <point x="415" y="409"/>
      <point x="415" y="358"/>
      <point x="415" y="329" type="curve" smooth="yes"/>
      <point x="415" y="321"/>
      <point x="417" y="318"/>
      <point x="422" y="313" type="curve" smooth="yes"/>
      <point x="445" y="290"/>
      <point x="481" y="280"/>
      <point x="523" y="280" type="curve" smooth="yes"/>
    </contour>
  </outline>
</glyph>
<glyph name="r.ss02" format="1">
  <advance width="600"/>
  <outline>
    <contour>
      <point x="50" y="540" type="curve"/>
      <point x="50" y="518" type="line" smooth="yes"/>
      <point x="50" y="476"/>
      <point x="60" y="440"/>
      <point x="83" y="417" type="curve" smooth="yes"/>
      <point x="88" y="412"/>
      <point x="91" y="410"/>
      <point x="99" y="410" type="curve"/>
      <point x="155" y="410"/>
      <point x="186" y="410"/>
      <point x="242" y="410" type="curve"/>
      <point x="242" y="432" type="line" smooth="yes"/>
      <point x="242" y="469"/>
      <point x="231" y="540"/>
      <point x="184" y="540" type="curve" smooth="yes"/>
      <point x="128" y="540"/>
      <point x="106" y="540"/>
    </contour>
    <contour>
      <point x="293" y="-10" type="line"/>
      <point x="293" y="123"/>
      <point x="293" y="256"/>
      <point x="293" y="389" type="curve"/>
      <point x="293" y="443"/>
      <point x="238" y="540"/>
      <point x="185" y="540" type="curve" smooth="yes"/>
      <point x="155" y="540" type="line"/>
      <point x="155" y="466"/>
      <point x="155" y="307"/>
      <point x="155" y="236" type="curve" smooth="yes"/>
      <point x="155" y="171"/>
      <point x="155" y="104"/>
      <point x="155" y="39" type="curve"/>
      <point x="155" y="31"/>
      <point x="157" y="28"/>
      <point x="162" y="23" type="curve" smooth="yes"/>
      <point x="185" y="0"/>
      <point x="229" y="-10"/>
      <point x="271" y="-10" type="curve" smooth="yes"/>
    </contour>
    <contour>
      <point x="424" y="560" type="curve" smooth="yes"/>
      <point x="373" y="560"/>
      <point x="308" y="485"/>
      <point x="273" y="424" type="curve" smooth="yes"/>
      <point x="252" y="388"/>
      <point x="248" y="364"/>
      <point x="249" y="319" type="curve"/>
      <point x="307" y="397"/>
      <point x="356" y="424"/>
      <point x="412" y="424" type="curve" smooth="yes"/>
      <point x="462" y="424"/>
      <point x="495" y="414"/>
      <point x="525" y="393" type="curve"/>
      <point x="539" y="400"/>
      <point x="545" y="414"/>
      <point x="545" y="431" type="curve" smooth="yes"/>
      <point x="545" y="477"/>
      <point x="484" y="560"/>
    </contour>
    <contour>
      <point x="545" y="250" type="line"/>
      <point x="545" y="308"/>
      <point x="545" y="375"/>
      <point x="545" y="431" type="curve" smooth="yes"/>
      <point x="545" y="469"/>
      <point x="489" y="492"/>
      <point x="437" y="492" type="curve" smooth="yes"/>
      <point x="415" y="492" type="line"/>
      <point x="415" y="474"/>
      <point x="415" y="455"/>
      <point x="415" y="437" type="curve" smooth="yes"/>
      <point x="415" y="401"/>
      <point x="415" y="337"/>
      <point x="415" y="299" type="curve" smooth="yes"/>
      <point x="415" y="291"/>
      <point x="417" y="288"/>
      <point x="422" y="283" type="curve" smooth="yes"/>
      <point x="445" y="260"/>
      <point x="481" y="250"/>
      <point x="523" y="250" type="curve" smooth="yes"/>
    </contour>
  </outline>
</glyph>
